
<svg fill="none" xmlns="http://www.w3.org/2000/svg">
<symbol viewBox="0 0 166 30" id="logo">

<g clip-path="url(#clip0_1_93)">
<path d="M12.1233 15.2148L17.5498 13.3468C17.7273 13.2815 17.9327 13.3749 17.9981 13.5523C18.0168 13.5897 18.0168 13.6364 18.0168 13.6737V29.4489C18.0168 29.6451 17.858 29.8039 17.6619 29.8039H12.2447C12.0486 29.8039 11.8898 29.6451 11.8898 29.4489V15.5417C11.8898 15.3923 11.9832 15.2615 12.1233 15.2148ZM0 19.614V29.4489C0 29.6451 0.15878 29.7945 0.354919 29.7945H5.7254C5.92154 29.7945 6.08032 29.6357 6.08032 29.4396V17.802C6.08032 17.6059 5.92154 17.4471 5.73474 17.4471C5.69738 17.4471 5.66002 17.4564 5.62266 17.4658L0.242839 19.2777C0.10274 19.3244 0 19.4645 0 19.614ZM17.8207 0.429648L18.2783 2.64322L0.224159 8.89166C0.0933998 8.9477 0 9.07846 0 9.21856V13.9166C0 14.1127 0.15878 14.2715 0.345579 14.2715C0.382939 14.2715 0.429639 14.2622 0.466999 14.2528L19.5486 7.67747L19.9595 9.48942C20.0062 9.67622 20.193 9.79764 20.3798 9.75094C20.4452 9.73226 20.5106 9.6949 20.5573 9.6482L27.3474 2.335C27.4782 2.1949 27.4689 1.97074 27.3288 1.83998C27.2821 1.79328 27.226 1.76526 27.1606 1.75592L18.2316 9.1131e-06C18.0448 -0.0373508 17.858 0.0840689 17.8207 0.270868C17.8113 0.326908 17.8113 0.382948 17.8207 0.429648Z" fill="#fff"/>
<path d="M57.9452 22.8082H46.7559C46.6158 22.8082 46.5037 22.9203 46.5037 23.0604C46.5037 23.0791 46.5037 23.0978 46.5131 23.1164C46.924 24.8257 48.1476 26.0959 50.5479 26.0959C51.6594 26.0959 52.444 25.9184 53.0137 25.3113C53.0884 25.2273 53.2005 25.1806 53.3126 25.1806H57.4222C57.6557 25.1806 57.8425 25.3674 57.8425 25.6009C57.8425 25.6663 57.8331 25.7223 57.8051 25.7783C56.5722 28.4589 53.845 30 50.5199 30C45.3362 30 41.9085 26.3387 41.9085 21.5193C41.9085 16.6999 45.2989 13.0106 50.2491 13.0106C55.6849 13.0106 59.0193 17.0268 58.3655 22.4346C58.3375 22.6494 58.16 22.8082 57.9452 22.8082ZM46.5504 19.7914H53.901C53.6675 17.7273 52.3412 16.7746 50.2771 16.7746C48.1102 16.7653 46.9521 18.0915 46.5504 19.7914Z" fill="#fff"/>
<path d="M71.6376 13.7391C71.6283 13.5056 71.4321 13.3281 71.208 13.3375C69.0131 13.4215 67.2852 14.1594 65.9215 15.4577H65.9122V14.0193C65.9122 13.7858 65.7254 13.599 65.4919 13.599H61.8867C61.6532 13.599 61.4664 13.7858 61.4664 14.0193V29.3555C61.4664 29.589 61.6532 29.7758 61.8867 29.7758H65.4919C65.7254 29.7758 65.9122 29.589 65.9122 29.3555V20.0716C65.9122 20.0062 65.9402 19.9502 65.9776 19.9035C67.2852 18.4745 68.9851 17.7459 71.2547 17.5591C71.4695 17.5405 71.6376 17.363 71.6376 17.1389V13.7484C71.6376 13.7484 71.6376 13.7484 71.6376 13.7391Z" fill="#fff"/>
<path d="M101.208 20.7814C101.204 15.9022 98.151 13.1974 93.7827 13.188C91.5785 13.188 89.9159 13.8605 88.3281 15.2242C87.1046 13.8699 85.3113 13.188 83.1725 13.188C81.2391 13.188 79.9875 13.7671 78.9041 14.6731V14.0193H78.8948C78.8948 13.7858 78.708 13.599 78.4745 13.599H74.8692C74.6357 13.599 74.4489 13.7858 74.4489 14.0193V29.3555C74.4489 29.589 74.6357 29.7758 74.8692 29.7758H78.4745C78.708 29.7758 78.8948 29.589 78.8948 29.3555V20.0809C78.8948 19.3524 79.2217 18.6613 79.7914 18.2036C80.5853 17.5592 81.5753 17.2136 82.5934 17.2323C84.2839 17.2323 85.6102 18.0448 85.6102 20.5199V29.3555C85.6102 29.589 85.797 29.7758 86.0305 29.7758H89.6357C89.8692 29.7758 90.056 29.589 90.056 29.3555V20.5199C90.056 20.2958 90.0467 20.109 90.0467 19.8942C90.0467 19.0909 90.3456 18.4091 90.9527 17.9795C90.9527 17.9795 90.9527 17.9795 90.962 17.9795C91.6999 17.4751 92.5778 17.2136 93.4745 17.2323C95.0716 17.2323 96.2484 17.9234 96.6314 19.5392L96.6332 19.5402C96.7164 19.911 96.7621 20.3191 96.7621 20.7814V29.3462C96.7621 29.5797 96.9489 29.7665 97.1824 29.7665H100.788C101.021 29.7665 101.208 29.5797 101.208 29.3462V20.7814Z" fill="#fff"/>
<path d="M104.374 8.67684C104.206 7.07036 105.551 5.70672 107.158 5.75342C108.549 5.79078 109.679 6.80884 109.773 8.2005C109.875 9.74159 108.605 11.0025 107.064 11.0025C105.644 11.0025 104.514 10.0218 104.374 8.67684ZM109.306 14.0193V29.3555C109.306 29.589 109.119 29.7758 108.885 29.7758H105.28C105.047 29.7758 104.86 29.589 104.86 29.3555V14.0193C104.86 13.7858 105.047 13.599 105.28 13.599H108.885C109.119 13.599 109.306 13.7858 109.306 14.0193Z" fill="#fff"/>
<path d="M129.228 20.9963V29.3555C129.228 29.589 129.041 29.7758 128.808 29.7758H125.202C124.969 29.7758 124.782 29.589 124.782 29.3555V21.2671C124.782 18.6239 123.456 17.2322 121.121 17.2322C120.803 17.2322 120.495 17.2789 120.187 17.363C118.515 17.83 117.394 19.3898 117.394 21.1177V29.3555C117.394 29.589 117.207 29.7758 116.974 29.7758H113.369C113.135 29.7758 112.948 29.589 112.948 29.3555V14.0193C112.948 13.7858 113.135 13.599 113.369 13.599H116.974C117.207 13.599 117.394 13.7858 117.394 14.0193V14.8132C117.394 14.8132 117.394 14.8132 117.403 14.8132C118.72 13.7391 120.374 13.1694 122.073 13.188C126.379 13.1974 129.228 16.2422 129.228 20.9963Z" fill="#fff"/>
<path d="M148.328 13.8325V29.1687C148.328 29.4022 148.141 29.589 147.908 29.589H144.312C144.078 29.589 143.892 29.4022 143.892 29.1687V28.3001C142.565 29.3462 141.043 29.9907 139.212 29.9907C134.907 29.9907 132.058 26.8337 132.058 22.089V13.8232C132.058 13.5897 132.245 13.4029 132.478 13.4029H136.083C136.317 13.4029 136.504 13.5897 136.504 13.8232V21.8088C136.504 24.4521 137.83 25.9465 140.165 25.9465C140.483 25.9465 140.8 25.8998 141.099 25.8064C142.771 25.3207 143.892 23.7516 143.892 22.0143V13.8138C143.892 13.5803 144.078 13.3935 144.312 13.3935H147.917C148.141 13.4215 148.328 13.599 148.328 13.8325Z" fill="#fff"/>
<path d="M158.705 26.3947C160.405 26.3947 161.591 25.9558 161.591 25.0405C161.591 24.396 161.049 23.8543 159.928 23.6488L156.435 23.0417C154.063 22.6307 151.653 21.3512 151.653 18.297C151.653 14.972 154.464 12.9732 158.574 12.9732C161.385 12.9732 165.084 13.7297 165.672 17.9514C165.7 18.1849 165.542 18.3904 165.317 18.4278C165.299 18.4278 165.28 18.4278 165.261 18.4278H161.983C161.796 18.4278 161.628 18.297 161.582 18.1102C161.311 16.896 160.012 16.4944 158.574 16.4944C156.874 16.4944 156.062 17.0735 156.062 17.8487C156.062 18.4558 156.501 19.1749 158.06 19.4458L160.974 19.9221C163.487 20.3611 165.822 21.5193 165.822 24.6388C165.822 28.2347 162.702 30 158.602 30C155.165 30 151.7 28.7671 151.158 24.4427C151.13 24.2092 151.289 24.0037 151.522 23.9757C151.541 23.9757 151.56 23.9757 151.578 23.9757L154.875 24.0037C155.072 24.0037 155.23 24.1345 155.277 24.3306C155.641 25.8904 156.921 26.3947 158.705 26.3947Z" fill="#fff"/>
<path d="M40.6009 29.0473C40.6102 29.066 40.6196 29.0847 40.6196 29.1127C40.6196 29.2154 40.5542 29.3182 40.4514 29.3555C39.2653 29.7945 38.0137 30.0093 36.7435 30C32.4004 30 29.9627 27.2914 29.9627 23.1538V17.1575H27.4876C27.2541 17.1575 27.0673 16.9707 27.0673 16.7372V13.7484C27.0673 13.5149 27.2541 13.3281 27.4876 13.3281H29.9627L34.4085 8.54608V13.3281H39.3587C39.5922 13.3281 39.779 13.5149 39.779 13.7484V16.7372C39.779 16.9707 39.5922 17.1575 39.3587 17.1575H34.4085V23.1538C34.4085 25.0498 35.5947 25.9558 37.2572 25.8998C37.8923 25.8811 38.5274 25.7877 39.1438 25.6009C39.1812 25.5915 39.2279 25.5822 39.2653 25.5915C39.396 25.6196 39.5081 25.713 39.5455 25.8437L40.6009 29.0473Z" fill="#fff"/>
</g>
<defs>
<radialGradient id="paint0_radial_1_93" cx="0" cy="0" r="1" gradientUnits="userSpaceOnUse" gradientTransform="translate(12.3509 13.3278) rotate(39.7623) scale(22.0702 22.5122)">
<stop stop-color="#0098CE"/>
<stop offset="0.29" stop-color="#0072C6"/>
<stop offset="0.58" stop-color="#0065AC"/>
<stop offset="1" stop-color="#00538A"/>
</radialGradient>
<clipPath id="clip0_1_93">
<rect width="165.831" height="30" fill="white"/>
</clipPath>
</defs>
</symbol>

<symbol id="icon-cheveron-outline-up" viewBox="0 0 20 20">
<path d="M0 10c0-5.523 4.477-10 10-10s10 4.477 10 10v0c0 5.523-4.477 10-10 10s-10-4.477-10-10v0zM10 18c4.418 0 8-3.582 8-8s-3.582-8-8-8v0c-4.418 0-8 3.582-8 8s3.582 8 8 8v0zM10.7 7.46l3.55 3.54-1.41 1.41-2.84-2.81-2.83 2.8-1.41-1.4 4.24-4.24 0.7 0.7z "></path>
</symbol>


</svg>