<svg width="1004" height="976" viewBox="0 0 1004 976" fill="none" xmlns="http://www.w3.org/2000/svg">
<path d="M3.05613 825.891C21.3929 816.726 39.7297 807.564 56.5383 795.343C84.0436 777.016 111.549 758.689 139.054 741.89C166.559 723.563 195.592 708.291 224.626 693.019C247.546 682.325 270.468 671.636 294.916 665.526C296.445 665.526 297.973 663.998 299.501 663.998L293.388 662.471C278.108 657.888 261.299 653.309 246.018 647.199C224.626 638.037 204.761 625.816 186.424 613.6C168.087 601.379 152.806 584.579 142.11 564.725C135.998 552.508 129.886 540.291 125.301 528.07C113.077 497.527 106.964 463.928 108.492 430.329C108.492 428.801 108.492 427.273 108.492 425.746L111.549 430.329C128.358 448.656 148.222 463.928 172.671 473.089L226.154 492.944L273.524 511.271C301.029 521.964 325.478 538.764 343.815 561.674L345.343 563.197C346.871 563.197 346.871 564.725 348.399 564.725C348.399 563.197 346.871 561.674 346.871 560.146C339.23 544.87 333.118 529.598 327.006 512.798C316.31 485.31 308.669 457.817 301.029 428.801L284.22 358.543C278.108 337.161 271.996 315.783 262.827 294.401C259.771 286.763 256.715 277.601 253.659 269.963C253.659 268.435 252.131 268.435 253.659 266.908L255.187 268.435L270.468 283.707C275.052 288.29 279.636 292.873 285.748 297.456C297.973 306.617 308.669 315.783 320.894 324.944L339.23 338.689C365.208 357.016 388.129 379.926 407.993 404.363C417.162 416.58 426.33 428.801 432.441 442.545C433.969 444.073 433.969 445.6 435.497 447.128L450.777 448.656L466.062 450.179C470.645 450.179 475.228 451.707 481.342 451.707L495.091 453.234C499.678 453.234 504.261 456.29 508.844 456.29C510.376 451.707 516.486 427.273 518.014 422.69L513.431 419.635C498.151 407.419 482.87 396.725 467.59 384.509C456.892 375.343 447.722 366.182 438.556 355.488C412.578 328 395.769 295.928 386.6 259.274C380.488 237.892 378.96 216.509 378.96 195.127C378.96 172.217 380.488 147.781 385.072 124.872C388.129 106.545 389.657 88.2178 391.185 69.8907L392.713 46.9816L395.769 -6.47301L397.297 -3.41864L403.409 8.79974C411.05 24.0725 420.218 37.818 429.386 53.0903C440.084 68.3631 453.837 83.6359 469.117 95.8542C479.811 103.491 488.981 112.654 498.151 121.818C521.069 143.2 540.937 166.109 557.745 192.072C569.97 210.399 579.136 227.198 589.834 247.053C600.531 266.908 609.697 288.29 617.339 308.145L626.505 332.583C629.565 340.216 631.092 346.327 632.62 353.965C635.675 363.126 637.203 372.292 640.258 382.981C641.786 395.198 643.318 407.419 644.845 419.635C644.845 421.163 644.845 421.163 646.373 422.69C649.428 421.163 652.483 419.635 655.539 418.108C658.598 416.58 663.181 416.58 666.236 415.052C666.236 413.525 666.236 411.997 666.236 411.997L661.653 396.725C660.126 389.091 660.126 379.926 658.598 372.292C657.066 349.382 657.066 324.944 658.598 300.507C658.598 298.979 658.598 297.456 658.598 294.401C657.066 292.873 654.011 289.818 652.483 288.29C641.786 274.546 632.62 260.797 626.505 245.526C618.867 225.671 612.752 204.288 606.642 182.91C603.587 172.217 602.059 161.527 602.059 150.836C600.531 132.508 600.531 114.181 602.059 97.3814C605.114 69.8907 611.225 43.9268 620.395 17.9633C624.978 5.74535 631.092 -6.47299 635.675 -18.6914C643.318 -35.4913 650.956 -53.8184 658.598 -70.6183L669.292 -95.0546C679.989 -117.964 687.631 -140.873 695.27 -163.782C699.852 -180.582 705.967 -198.909 713.605 -215.709C713.605 -217.236 715.133 -218.764 715.133 -220.291C719.72 -232.509 722.775 -246.255 724.303 -258.473C724.303 -258.473 724.303 -258.473 725.831 -260C728.886 -258.473 730.414 -255.418 733.473 -252.364C748.754 -234.036 762.506 -214.182 776.259 -192.8C777.787 -191.273 779.315 -188.218 779.315 -186.691C782.37 -179.055 786.953 -171.418 790.008 -163.782C800.706 -136.291 806.82 -107.273 809.876 -78.2547C812.931 -50.764 812.931 -23.2729 812.931 5.74493C811.403 25.5997 809.876 45.4544 806.82 63.7815C800.706 98.9086 791.54 132.508 780.842 166.109C771.672 192.072 759.447 216.509 745.694 240.947C739.584 250.108 733.473 257.746 727.358 265.38C721.248 273.018 712.078 280.652 704.44 285.235C699.852 288.29 693.742 291.345 687.632 292.873C687.632 292.873 686.1 292.873 686.1 294.401C686.1 295.928 686.1 297.456 686.1 298.979V320.362C686.1 331.055 687.631 343.272 689.159 353.965L693.742 386.036L696.797 407.419C696.797 408.946 696.797 410.474 698.325 410.474C698.325 410.474 698.325 410.474 698.325 408.946L699.853 404.363C704.44 381.453 712.078 358.543 719.72 337.161C725.831 318.834 736.528 302.035 747.226 286.763C767.089 259.274 786.953 231.781 809.876 207.344C815.986 201.237 820.573 195.127 826.684 189.017L843.492 169.163C863.355 144.727 881.695 117.236 895.448 88.2178C895.448 86.6906 896.976 86.6906 896.976 85.1635C903.086 72.9451 909.201 60.7267 913.784 48.5088C913.784 46.9816 915.312 45.454 915.312 45.454C915.312 48.5088 916.839 50.036 916.839 51.5632L921.422 80.5815C922.95 92.7994 926.009 106.545 926.009 118.763C926.009 123.345 926.009 127.927 926.009 132.508C926.009 140.145 926.009 147.781 926.009 155.418C926.009 166.109 924.482 176.8 922.95 189.017C919.894 211.927 915.312 234.836 910.729 257.746C903.086 289.818 890.861 318.834 872.525 346.327C857.245 370.764 840.437 393.67 820.573 415.052C808.348 430.329 793.067 444.073 777.787 456.29C767.089 463.928 756.392 471.561 744.166 476.144C738.056 479.2 731.945 480.727 724.303 483.782C719.72 485.31 715.133 486.838 712.078 488.361C710.55 488.361 710.55 488.361 709.023 489.889C710.55 502.11 721.248 538.764 725.831 546.398L727.358 543.347C728.886 538.764 731.945 534.181 733.473 529.598C739.584 518.909 747.226 509.743 754.864 500.582L790.008 466.983C790.008 468.506 790.008 468.506 790.008 470.034C788.48 473.089 786.953 476.144 785.425 477.672L770.145 500.582C765.562 508.216 760.975 515.854 756.392 525.015L747.226 544.87C747.226 544.87 745.694 546.398 747.226 546.398L751.809 541.819C765.562 528.07 779.315 514.326 796.123 503.637C797.65 502.11 799.178 500.582 799.178 499.054C799.178 497.527 799.178 497.527 800.706 495.999C808.348 468.506 822.101 444.073 838.909 421.163L852.662 402.836C858.772 395.198 863.355 389.091 869.47 382.981L884.751 366.182L906.142 341.744C916.839 331.055 926.009 320.362 933.647 308.145C941.29 297.456 948.928 288.29 956.57 279.125C964.208 269.963 971.851 259.274 977.961 248.581C977.961 247.053 979.489 247.053 979.489 245.526H981.016C981.016 247.053 981.016 248.581 981.016 250.108L982.544 280.652C984.076 295.928 985.604 309.673 988.659 324.944C990.186 329.527 990.186 334.11 991.714 338.689L997.829 384.509C999.357 398.253 1000.88 411.997 1002.41 425.746C1003.94 442.545 1003.94 460.872 1002.41 477.672C1000.88 497.527 997.825 517.381 993.242 537.236C985.604 573.89 971.851 609.017 950.455 639.561C938.23 657.888 924.482 674.692 907.669 688.436L896.976 697.597C895.448 699.125 895.448 699.125 893.916 700.653C893.916 702.18 895.448 703.708 896.976 705.235L910.729 722.035C913.784 725.09 916.839 728.145 918.367 731.201C930.592 748 939.762 766.327 945.873 786.182C951.983 806.037 955.043 827.415 953.515 848.797C953.515 850.325 953.515 850.325 953.515 851.852C955.043 853.38 956.57 853.38 958.098 854.907L974.906 865.597L976.434 867.124V902.255H974.906C973.378 900.728 971.851 899.2 968.796 899.2L950.455 885.451C948.928 885.451 948.928 883.928 947.4 883.928C939.762 903.778 941.29 900.728 929.064 914.472L933.647 919.055L955.043 941.96C961.153 949.598 967.264 957.236 974.906 963.343L976.434 964.87V1024.43C973.378 1021.38 970.323 1016.8 967.264 1013.75C964.208 1009.16 961.153 1006.11 958.098 1001.52L948.928 989.308L939.762 977.091L930.592 966.398L921.422 954.181C918.367 951.126 915.312 946.543 910.729 943.488C909.201 945.016 907.669 946.543 907.669 946.543C896.976 957.237 884.751 966.398 870.998 972.508C854.189 980.142 835.854 987.78 819.041 993.891C794.595 1003.05 770.145 1007.63 745.694 1010.69C731.945 1012.22 718.193 1012.22 702.912 1010.69C696.797 1010.69 692.214 1009.16 686.1 1009.16C669.291 1006.11 652.483 1001.52 637.203 996.946C620.395 992.363 603.587 986.253 586.778 981.67C577.608 980.142 568.438 977.091 559.273 977.091C557.745 977.091 557.745 977.091 556.217 975.564L559.273 974.036C563.856 970.981 569.97 967.925 574.553 964.87L600.531 948.071C611.225 941.96 620.395 934.327 629.565 928.216C634.148 925.161 638.73 920.582 643.318 917.527L670.819 899.2C683.044 891.562 695.27 885.451 707.495 880.873C715.133 877.817 724.303 874.762 731.945 873.235C741.111 870.18 748.754 868.652 757.919 868.652C774.727 867.124 793.067 867.124 809.876 870.179C820.573 871.707 829.739 873.235 840.437 876.29C841.964 876.29 841.964 877.818 843.492 876.29C841.964 876.29 841.964 874.762 840.437 874.762L803.761 850.325C799.178 847.269 794.595 845.746 790.008 844.219C771.672 838.108 751.809 833.525 731.945 828.942C713.605 825.891 696.797 824.364 678.462 828.942C678.462 828.942 678.462 828.942 676.934 828.942C678.462 827.419 679.989 827.415 681.517 827.415C692.214 822.836 704.44 819.781 716.661 818.253C724.303 818.253 730.413 818.253 738.056 816.726C739.584 816.726 739.584 816.726 741.111 815.198C739.584 815.198 739.584 813.67 738.056 813.67C722.775 804.509 707.495 796.871 692.214 789.237C687.632 787.71 683.044 786.182 678.462 784.654C676.934 786.182 676.934 786.182 675.406 786.182C664.709 795.343 654.011 804.509 644.845 815.198C640.258 821.309 635.675 825.891 629.565 831.998C621.922 839.636 615.812 847.269 611.225 856.435C597.472 877.818 580.664 897.672 560.8 915.999C548.575 926.688 536.35 935.854 521.069 941.96C498.151 952.654 473.7 960.287 449.25 966.398C429.386 970.981 409.522 972.508 389.657 970.981C369.792 969.453 348.399 966.398 328.534 961.815C305.613 957.237 284.22 951.126 262.827 943.488C253.659 940.437 242.962 937.382 233.794 934.327C215.457 928.216 198.648 920.582 180.312 917.527C178.784 917.527 178.784 917.527 178.784 915.999C184.896 912.944 191.008 908.361 197.12 905.306C204.761 900.728 213.929 896.145 221.57 891.562C224.626 890.034 227.682 886.979 230.738 885.451C242.962 877.818 256.715 868.652 267.411 859.49C284.22 847.27 299.501 833.525 314.781 819.781C327.006 809.088 339.23 798.399 352.983 789.237C371.32 775.489 391.185 764.8 414.106 757.161C441.611 746.472 470.645 738.834 499.678 734.252C508.844 732.728 516.486 731.201 525.656 731.201C527.184 731.201 528.712 731.201 530.239 729.673V728.145C528.712 726.618 528.712 726.618 527.184 726.618C524.124 725.09 522.597 723.563 519.542 720.507C516.486 715.924 513.431 715.924 508.844 715.924C504.261 715.924 499.678 715.924 493.563 717.452C490.508 717.452 487.453 717.452 484.398 717.452C470.645 717.452 455.364 718.98 441.611 722.035C432.441 723.563 423.274 726.618 414.106 728.145C411.05 728.145 409.522 729.673 404.937 729.673L412.578 725.09L418.69 722.035L424.802 718.98C426.33 717.452 429.386 717.452 432.441 715.924L440.084 712.874L447.722 709.818L455.364 706.763C458.42 705.235 459.947 705.235 463.002 703.708L469.117 702.18L476.755 700.653C479.811 699.125 481.343 699.125 484.398 697.597L482.87 696.07L461.475 688.436C459.947 688.436 456.892 686.908 455.364 688.436C447.722 688.436 441.611 689.963 433.969 693.019L404.937 702.18C391.185 706.763 394.241 705.235 382.016 714.397C359.095 732.728 334.646 749.528 311.725 766.327C302.557 772.433 293.388 780.071 282.692 784.654C262.827 796.871 241.434 807.564 221.57 816.726C207.817 822.836 192.536 828.942 178.784 833.525C152.806 841.163 125.301 845.746 97.7961 847.27C80.9875 848.797 64.1786 847.269 48.898 842.691C32.0894 838.108 16.8087 831.998 1.52806 827.415C1.52806 827.415 0 827.415 0 825.891C0 827.415 1.52806 825.891 3.05613 825.891ZM802.233 242.47C800.706 245.526 797.65 247.053 796.123 250.108L762.506 295.928C760.975 298.979 759.447 302.034 759.447 305.09C759.447 320.362 759.447 335.633 760.975 352.437C760.975 352.437 760.975 352.437 760.975 353.965C762.506 353.965 762.506 353.965 762.506 352.437L770.145 338.689L786.953 308.145C788.48 305.09 788.48 303.562 790.008 300.507C790.008 297.456 790.008 295.928 790.008 292.873C790.008 285.235 791.54 277.601 794.595 269.963C797.65 262.325 799.178 254.691 802.233 248.581L803.761 242.47C803.761 240.947 802.233 240.947 802.233 242.47ZM724.303 462.4C741.111 456.29 756.392 448.656 770.145 436.435C782.37 425.746 793.067 415.052 803.761 404.363C823.628 382.981 840.437 358.543 855.717 334.11C872.525 308.145 883.223 280.652 890.861 251.636C895.448 231.781 900.031 210.399 903.086 190.544C904.614 179.855 904.614 167.636 906.142 156.945C907.669 141.672 907.669 124.872 907.669 109.6C907.669 108.072 907.669 106.545 907.669 106.545C906.142 106.545 906.142 108.072 904.614 108.072L892.389 129.454C877.108 153.89 858.772 178.328 838.909 199.71L820.573 221.092C817.514 224.143 815.986 227.198 815.986 230.254L808.348 266.908C808.348 268.435 808.348 271.491 806.82 273.018H808.348C809.876 271.491 809.876 271.491 811.403 269.963C822.101 256.219 832.794 242.47 843.492 228.726C845.02 227.198 846.547 225.671 846.547 224.143C848.075 222.616 848.075 221.092 849.602 218.037C849.602 221.092 849.602 222.616 848.075 224.143C846.547 227.198 845.02 230.254 843.492 233.309C834.322 253.164 823.629 274.546 814.458 294.401V295.928C814.458 297.456 815.986 295.928 817.514 295.928C838.909 286.763 857.245 274.546 872.525 257.746C874.053 256.219 875.581 253.164 878.636 251.636V253.164C869.47 266.908 860.3 279.125 849.602 289.818C843.492 295.928 837.381 300.507 831.267 305.09C823.628 311.2 814.458 314.255 805.288 315.783C805.288 315.783 803.761 315.783 802.233 315.783L774.727 366.182C774.727 367.709 776.259 367.709 777.787 366.182C782.37 364.654 786.953 361.599 791.54 360.071C802.233 355.488 811.403 349.382 820.573 341.744C826.684 337.161 832.794 332.583 837.381 326.472C838.909 328 837.381 328 837.381 328C832.794 335.638 828.211 343.272 822.101 349.382C815.986 355.488 809.876 361.599 802.233 367.709C797.65 370.764 794.595 373.815 790.008 376.871C783.897 381.453 776.259 382.981 768.617 384.509H767.089C765.562 384.509 762.506 386.036 762.506 387.564L754.864 401.308C745.694 418.108 736.528 433.38 727.358 450.179C725.831 453.234 724.303 456.29 722.775 460.872C722.775 462.4 724.303 462.4 724.303 462.4ZM713.605 436.435L727.358 411.997L745.694 379.926C747.226 376.871 747.226 375.343 747.226 372.292C745.694 357.016 747.226 340.216 750.281 324.944L751.809 315.783C751.809 314.255 751.809 314.255 751.809 312.728C750.281 312.728 750.281 314.255 748.754 315.783C744.166 324.944 739.584 334.11 735.001 344.799C725.831 370.764 718.193 396.725 713.605 422.69C712.078 427.273 712.078 431.852 710.55 436.435C710.55 437.962 710.55 437.962 710.55 439.49C712.078 437.962 713.605 436.435 713.605 436.435ZM255.187 628.872C270.468 634.982 287.276 641.088 302.557 644.144C317.838 647.199 333.118 648.726 346.871 650.254V648.726C345.343 648.726 343.815 647.199 342.287 647.199C331.59 644.144 319.366 641.088 308.669 634.982L293.388 627.344C291.86 625.816 290.332 625.816 287.276 625.816C276.58 627.344 267.411 625.816 256.715 625.816C256.715 627.344 255.187 627.344 255.187 628.872C253.659 628.872 255.187 628.872 255.187 628.872ZM180.312 584.579C183.368 587.635 187.952 590.69 191.008 593.745C204.761 602.906 218.513 610.545 232.266 618.183C235.322 619.706 239.906 621.234 242.962 619.706L264.355 616.655C265.883 616.655 265.883 616.655 267.411 616.655C267.411 615.127 265.883 615.127 265.883 615.127C255.187 609.017 242.962 602.906 233.794 595.273C232.266 593.745 230.738 593.745 229.21 593.745C221.57 593.745 213.929 592.217 207.817 589.162C200.176 586.107 192.536 583.052 184.896 580.001C181.84 578.473 178.784 576.946 175.728 575.418C174.2 575.418 172.671 573.89 172.671 573.89C174.2 578.473 177.256 581.528 180.312 584.579ZM320.894 566.252C307.141 552.508 290.332 540.291 273.524 532.653C262.827 528.07 250.603 523.492 239.906 518.909L178.784 494.471C172.671 491.416 166.559 489.889 160.447 486.838C148.222 480.727 137.526 473.089 128.358 462.4C126.83 460.872 126.83 459.345 125.301 459.345C123.773 460.872 123.773 462.4 123.773 462.4C126.83 483.782 132.942 505.165 140.582 525.015C145.166 537.236 151.278 549.453 158.919 560.146C160.447 563.197 163.503 566.252 166.559 567.78C177.256 573.89 187.952 576.946 200.176 578.473C203.232 578.473 207.817 580.001 210.873 580.001C210.873 578.473 209.345 576.946 209.345 576.946C195.592 561.674 183.368 544.87 172.671 528.07C171.143 525.015 169.615 521.964 168.087 520.437C169.615 520.437 169.615 520.437 169.615 520.437C171.143 523.492 174.2 526.543 175.728 528.07C187.952 541.819 201.704 552.508 215.457 563.197C216.985 564.725 218.513 564.725 218.513 566.252C218.513 566.252 218.513 566.252 220.041 566.252C221.57 564.725 220.041 563.197 220.041 561.674C216.985 547.925 212.401 534.181 206.289 521.964C206.289 520.437 204.761 518.909 204.761 517.381C206.289 517.381 206.289 518.909 206.289 518.909C216.985 532.653 224.626 547.925 232.266 563.197C233.794 566.252 235.322 570.835 235.322 573.89C235.322 575.418 236.85 578.473 238.378 578.473C247.546 584.579 256.715 590.69 267.411 596.8L279.636 602.906C281.164 602.906 281.164 602.906 282.692 604.434V602.906L276.58 572.363C273.524 563.197 270.468 554.036 265.883 544.87C264.355 543.347 264.355 541.819 264.355 540.291C264.355 540.291 265.883 540.291 265.883 541.819C279.636 558.618 288.804 576.946 294.916 596.8C296.445 601.379 297.973 605.962 297.973 610.545C297.973 612.072 299.501 613.6 301.029 615.127C313.253 621.234 323.95 625.816 336.174 630.399L362.151 639.561C363.68 639.561 365.208 639.561 365.208 641.088C366.736 639.561 365.208 638.037 365.208 636.51C362.152 628.872 359.095 621.234 354.511 613.6C345.343 595.273 334.646 580.001 320.894 566.252ZM346.871 517.381C352.983 531.126 357.567 546.397 365.208 560.146C366.736 563.197 368.264 566.252 371.32 567.78L383.544 575.418C383.544 575.418 385.072 575.418 385.072 576.946C386.6 575.418 385.072 573.89 385.072 572.363L378.96 549.453C378.96 546.397 377.432 544.87 374.376 541.819C368.264 537.236 363.68 531.126 357.567 526.543C354.511 523.492 351.455 520.437 348.399 517.381L346.871 515.854V517.381ZM380.488 584.579C380.488 586.107 380.488 586.107 380.488 587.635C386.601 598.328 392.713 609.017 400.353 619.706C400.353 621.234 401.881 621.234 401.881 622.761L400.353 619.706L392.713 598.328C392.713 596.8 391.185 593.745 388.129 592.217C386.601 590.69 383.544 589.162 380.488 584.579ZM623.45 431.852C620.395 418.108 618.867 404.363 615.812 390.619C612.752 367.709 606.642 344.799 599.004 323.417C583.719 283.707 565.383 243.998 542.465 208.871C527.184 184.438 507.316 161.527 487.453 141.672C478.283 132.508 469.117 124.872 458.42 115.708C452.309 111.127 447.722 106.545 441.611 101.963C430.914 91.2722 421.746 80.5815 412.578 66.8359C411.05 65.3087 411.05 63.7815 409.522 62.2543C407.993 62.2543 407.993 63.7815 407.993 65.3087C407.993 75.9995 406.465 86.6906 406.465 98.9086C404.937 108.072 403.409 117.236 403.409 127.927C400.353 152.363 397.297 178.328 397.297 204.288C397.297 240.947 406.465 276.074 423.274 308.145C430.914 323.417 441.611 337.161 453.837 349.382C463.002 358.543 472.172 367.709 482.87 376.871L521.069 405.891C522.597 405.891 522.597 407.419 524.124 407.419C525.656 404.363 525.656 401.308 527.184 398.253C527.184 395.198 528.712 392.147 528.712 389.092C527.184 387.564 524.124 386.036 522.597 384.509C518.014 379.926 511.904 376.871 507.316 372.292L472.172 338.689C469.117 335.638 466.062 332.583 463.002 329.527H464.53C475.228 335.634 484.398 343.272 495.091 349.382L513.431 361.599C518.014 364.654 524.124 367.709 528.712 370.764C528.712 370.764 530.239 370.764 531.767 372.292C531.767 372.292 533.294 370.764 533.294 369.237C533.294 366.182 534.822 363.126 534.822 360.071C534.822 358.543 534.822 355.488 533.294 353.965L513.431 326.472L493.563 295.928C492.036 294.401 490.508 292.873 488.981 291.345C485.925 289.818 482.87 288.29 479.811 285.235C473.7 282.18 469.117 277.601 464.53 273.018C449.25 256.219 435.497 239.419 424.802 219.565C423.274 216.509 421.746 213.454 420.218 210.399C430.914 224.143 443.139 236.364 455.364 247.053C461.475 253.164 469.117 257.746 475.228 263.853C475.228 263.853 476.755 263.853 476.755 265.38V263.853C475.228 260.797 473.7 257.746 472.172 254.691C464.53 239.419 458.42 224.143 452.309 208.871C447.722 198.182 446.194 187.489 444.667 176.8C441.611 160 438.556 143.2 433.969 127.927L432.441 120.29C433.969 121.818 435.497 123.345 435.497 124.872L447.722 152.363L466.062 195.127C467.59 198.182 467.59 201.237 469.117 204.288C475.228 219.565 479.811 234.836 487.453 250.108C488.981 253.164 490.508 256.219 492.036 259.274C492.036 260.797 493.563 260.797 493.563 262.325C493.563 260.797 493.563 259.274 493.563 257.746L492.036 236.364L487.453 198.182C485.925 192.072 484.398 182.91 482.87 176.8C482.87 176.8 484.398 179.855 484.398 181.383C485.925 187.489 488.981 193.599 490.508 199.71L504.261 247.053C505.789 254.691 507.316 262.325 507.316 269.963V282.18C507.316 283.707 507.316 285.235 508.844 286.763C516.486 298.979 525.656 312.728 533.294 324.944L534.822 326.472C534.822 326.472 534.822 324.944 536.35 324.944L537.877 314.255C537.877 312.728 537.877 312.728 539.405 311.2C539.405 312.728 539.405 314.255 540.937 315.783L545.52 337.161C545.52 338.689 547.047 340.216 547.047 341.744C550.103 346.327 553.158 349.382 556.217 353.965C556.217 353.965 556.217 353.965 557.745 353.965C557.745 352.437 557.745 352.437 557.745 350.91C557.745 349.382 557.745 346.327 556.217 344.799L551.63 312.728C548.575 294.401 542.465 276.074 536.35 257.746C536.35 256.219 534.822 256.219 534.822 254.691C536.35 254.691 536.35 256.219 537.877 256.219L545.52 271.491C554.69 289.818 563.856 306.617 568.438 326.472C571.498 340.216 574.553 353.965 571.498 369.237C571.498 372.292 571.498 375.343 573.026 376.871C586.778 395.198 600.531 411.997 617.339 428.801C618.867 430.324 620.395 431.852 621.922 433.38C623.45 433.38 623.45 431.852 623.45 431.852ZM641.786 521.964C634.148 497.527 624.978 476.144 611.225 454.762C602.059 441.018 592.889 428.801 582.191 416.58L565.383 398.253C557.745 390.619 551.63 381.453 547.047 372.292C547.047 372.292 547.047 370.764 545.52 370.764L543.992 369.237C542.465 369.237 542.465 370.764 542.465 370.764C542.465 372.292 542.465 373.815 542.465 375.343C542.465 393.67 539.405 411.997 534.822 428.801L522.597 477.672C513.431 518.909 513.431 560.146 521.069 601.379C522.597 610.545 525.656 619.706 530.239 628.872C539.405 645.671 550.103 662.471 563.856 676.215L586.778 700.653C592.889 706.763 597.472 711.346 605.114 715.924C606.642 717.452 608.169 718.98 611.225 718.98V717.452C600.531 699.125 594.417 677.743 585.251 657.888C585.251 656.365 583.719 656.365 583.719 654.837C583.719 653.309 582.191 651.782 580.664 650.254C562.328 638.037 550.103 621.234 539.405 601.379C534.822 592.217 533.295 581.528 531.767 570.835V569.307V567.78C534.822 580.001 539.405 590.69 547.047 599.856C551.63 605.962 557.745 612.072 563.856 616.655C566.911 619.706 569.97 621.234 573.026 624.289C574.553 624.289 574.553 622.761 574.553 622.761C569.97 605.962 566.911 590.69 563.856 573.89C563.856 572.363 562.328 570.835 562.328 569.307C553.158 558.618 547.047 547.925 543.992 534.181C540.937 523.492 537.877 511.271 537.877 500.582C537.877 497.527 537.877 495.999 537.877 492.944C542.465 511.271 550.103 528.07 559.273 543.347C560.8 543.347 560.8 541.819 560.8 540.291V511.271C560.8 499.054 562.328 486.838 562.328 474.617C562.328 471.561 562.328 468.506 562.328 466.983C562.328 465.455 562.328 465.455 562.328 463.928H563.856C563.856 465.455 563.855 468.506 565.383 470.034L566.911 489.889C568.438 505.165 571.498 520.437 574.553 535.708C574.553 537.236 574.553 537.236 576.081 537.236L577.608 535.708C585.251 520.437 594.417 506.688 600.531 489.889C602.059 485.31 603.587 480.727 605.114 476.144L606.642 474.617C606.642 482.255 605.114 491.416 602.059 499.054C597.472 515.854 592.889 532.653 586.778 549.453C585.251 554.036 583.719 557.091 580.664 560.146C579.136 564.725 579.136 566.252 579.136 567.78C582.191 583.052 585.251 598.328 589.834 613.6C589.834 615.127 591.361 616.655 591.361 618.183L592.889 616.655L609.697 589.162C618.867 573.89 624.978 558.618 629.565 541.819C629.565 540.291 629.565 538.764 631.092 538.764C631.092 538.764 631.092 538.764 632.62 537.236C632.62 538.764 632.62 540.291 632.62 541.819C631.092 558.618 628.033 576.946 623.45 593.745C621.922 599.856 618.867 607.489 615.812 613.6C612.752 621.234 608.169 628.872 602.059 633.455C600.531 633.455 600.531 634.982 599.004 634.982C599.004 634.982 599.004 636.51 597.472 636.51C602.059 648.726 606.642 660.943 611.225 673.164C615.812 685.381 620.395 697.597 624.978 711.346C624.978 709.818 626.505 708.291 626.505 705.235C629.565 691.491 632.62 677.743 635.675 663.998C637.203 656.365 638.73 647.199 640.258 638.037C641.786 625.816 644.845 615.127 646.373 602.906C649.428 584.579 649.428 564.725 646.373 544.87C646.373 537.236 644.845 529.598 641.786 521.964ZM536.35 709.818C537.877 717.452 543.992 722.035 551.63 722.035C556.217 722.035 559.273 720.507 562.328 717.452C565.383 714.397 565.383 709.818 563.856 705.235C563.856 703.708 562.328 702.18 562.328 700.653C559.273 694.546 553.158 691.491 545.52 694.546C537.877 696.07 534.822 702.18 536.35 709.818ZM603.587 749.528C606.642 752.579 609.697 754.106 612.752 755.634C614.284 755.634 614.284 757.162 615.812 755.634C620.395 755.634 624.978 754.106 629.565 754.106C629.565 754.106 631.092 754.106 631.092 752.579C626.505 751.055 612.752 749.528 603.587 749.528ZM647.901 714.397C650.956 717.452 654.011 718.98 660.126 718.98C667.764 718.98 672.347 711.346 667.764 703.708C666.236 700.653 663.181 697.597 660.126 697.597C655.539 696.07 650.956 697.597 647.901 700.653C646.373 706.763 646.373 711.346 647.901 714.397ZM654.011 442.545C647.901 445.6 644.845 453.234 647.901 459.345C650.956 466.983 655.539 470.034 664.709 470.034C667.764 470.034 672.347 468.506 673.879 465.455C676.934 462.4 676.934 457.817 675.406 454.762C673.879 450.179 670.819 445.6 666.236 442.545C663.181 439.49 658.598 439.49 654.011 442.545ZM693.742 -24.8001C693.742 -26.3277 695.27 -27.8549 695.27 -29.3821C693.742 -6.47301 692.214 16.4361 692.214 39.3452C693.742 39.3452 693.742 37.818 693.742 37.818C699.852 10.3269 707.495 -17.1638 713.605 -44.6549C716.661 -55.3456 719.72 -64.5092 724.303 -75.2003C728.886 -88.9455 733.473 -101.164 739.584 -113.382C741.111 -116.437 745.694 -124.073 747.226 -124.073C747.226 -124.073 742.639 -102.691 742.639 -98.1095C741.111 -85.8911 739.584 -72.1455 736.528 -59.9276C735.001 -53.8184 735.001 -47.7092 731.945 -40.0729C725.831 -14.1094 718.193 11.8541 712.078 37.818C710.55 45.454 709.023 53.0903 707.495 60.7267V62.2543L709.023 60.7267L730.414 21.0177C738.056 7.27255 744.166 -8.00021 747.226 -23.2729L748.754 -26.3277C748.754 -23.2729 748.754 -21.7457 748.754 -18.6914C745.694 5.74494 739.584 28.654 730.414 50.0359C730.414 51.5631 728.886 53.0903 727.358 56.1451C721.248 69.8907 713.605 83.6359 705.967 95.8542C704.44 97.3814 702.912 100.436 701.38 101.963C699.852 103.491 698.325 106.545 698.325 109.6C695.27 124.872 693.742 140.145 693.742 155.418L692.214 172.217C692.214 173.745 692.214 173.745 692.214 175.272C693.742 175.272 693.742 173.745 693.742 173.745C699.852 160 707.495 146.254 712.078 132.508C716.661 121.818 721.248 112.654 725.831 101.963C731.945 88.2178 738.056 74.4723 742.639 59.1995C744.166 56.1451 744.166 53.0904 747.226 51.5632V53.0903L741.111 82.1086L731.945 124.872C730.413 132.508 727.358 140.145 724.303 147.781C718.193 163.054 710.55 179.855 701.38 193.599C698.325 196.655 696.797 201.237 693.742 204.288C692.214 205.816 692.214 207.344 690.687 210.399L687.632 245.526L686.1 269.963C686.1 271.491 686.1 273.018 686.1 274.546C687.631 274.546 687.631 274.546 689.159 274.546C707.495 260.797 722.775 242.47 735.001 222.616C745.694 204.288 756.392 184.438 762.506 163.054C771.672 132.508 780.842 101.963 786.953 71.4179L793.068 39.3452C794.595 28.6541 796.123 16.4361 796.123 5.74493C797.65 -20.2186 796.123 -44.6549 794.595 -70.6183C791.54 -98.1095 786.953 -125.6 777.787 -151.564C774.727 -159.2 771.672 -166.836 767.089 -176L760.975 -192.8L751.809 -217.236C747.226 -227.927 736.528 -249.309 735.001 -250.836C733.473 -249.309 731.945 -214.182 728.886 -197.382C728.886 -195.855 727.358 -192.8 727.358 -191.273L709.023 -131.709C705.967 -121.019 701.38 -108.8 696.797 -98.1095C690.687 -81.3091 683.044 -66.0368 676.934 -50.764L655.539 -11.055L638.73 27.1268C631.092 48.5088 624.978 69.8907 621.922 92.7994C620.395 109.6 618.867 126.4 620.395 144.727C620.395 156.945 623.45 167.636 624.978 178.328C629.565 198.182 635.675 219.565 643.318 237.892C646.373 247.053 650.956 256.219 655.539 265.38C655.539 266.908 657.066 266.908 657.066 268.435C658.598 268.435 658.598 266.908 658.598 265.38C658.598 259.274 660.126 253.164 661.653 247.053C661.653 245.526 661.653 245.526 661.653 243.998L663.181 216.509C663.181 213.454 663.181 210.399 661.653 207.344C657.066 196.655 655.539 184.434 654.011 173.745L649.428 138.618C649.428 132.508 647.901 127.927 647.901 121.818C647.901 106.545 649.428 91.2722 649.428 75.9995C649.428 66.8359 650.956 57.6723 654.011 48.5088C654.011 46.9816 655.539 45.454 655.539 43.9268C657.066 45.454 655.539 46.9816 655.539 48.5088C654.011 60.7267 654.011 72.9451 655.539 85.1635L661.653 135.563C663.181 146.254 664.709 155.418 666.236 166.109C666.236 167.636 666.236 167.636 667.764 169.163C669.291 166.109 669.292 164.582 669.292 163.054L672.347 130.981C673.879 121.818 675.406 114.181 675.406 105.018C675.406 101.963 675.406 98.9086 675.406 97.3814C672.347 72.9451 673.879 48.5088 678.462 24.0725C686.1 8.79974 689.159 -8.00018 693.742 -24.8001ZM686.1 480.727C684.572 479.199 684.572 477.672 683.044 476.144C681.517 474.617 679.989 474.617 678.462 476.144C676.934 477.672 676.934 479.199 676.934 480.727C676.934 483.782 679.989 485.31 681.517 486.838C683.044 486.838 684.572 485.31 686.1 485.31C686.1 483.782 686.1 482.255 686.1 480.727ZM709.023 593.745C709.023 592.217 709.023 592.217 709.023 593.745C698.325 566.252 689.159 538.764 683.044 511.271V509.743C683.044 508.216 681.517 506.688 679.989 506.688C676.934 505.165 673.879 503.637 670.819 502.109L655.539 494.471C654.011 494.471 654.011 494.471 652.483 492.944L654.011 499.054C657.066 506.688 660.126 515.854 661.653 523.492C664.709 535.708 667.764 549.453 667.764 563.197C667.764 566.252 667.764 569.307 667.764 570.835C667.764 573.89 669.291 576.946 670.819 578.473L699.853 612.072L701.38 613.6C701.38 613.6 702.912 613.6 702.912 612.072L710.55 599.856C709.022 596.8 709.023 595.273 709.023 593.745ZM730.414 595.273C724.303 604.434 718.193 613.6 713.605 624.289C712.078 625.816 712.078 627.344 712.078 628.872L710.55 656.365C710.55 657.888 710.55 659.415 710.55 660.943C710.55 662.471 710.55 662.471 712.078 663.998C713.605 662.471 713.605 660.943 713.605 660.943C716.661 653.309 719.72 645.671 722.775 639.561C722.775 638.037 724.303 636.51 724.303 634.982C725.831 622.761 728.886 610.545 731.945 598.328C731.945 596.8 731.945 596.8 731.945 595.273C730.413 595.273 730.414 595.273 730.414 595.273ZM938.23 625.816C955.043 598.328 967.264 569.307 974.906 537.236C979.489 514.326 984.076 491.416 985.604 466.983C987.131 448.656 985.604 428.801 984.076 410.474L976.434 353.965C974.906 341.744 973.378 329.527 971.851 317.306C971.851 309.673 971.851 303.562 971.851 295.928C971.851 292.873 973.378 291.345 971.851 288.29L970.323 289.818L968.796 291.345C959.626 309.673 945.873 326.472 932.12 343.272C930.592 346.327 927.537 347.854 926.009 350.91L880.168 399.781C866.415 415.052 854.19 430.324 843.492 447.128C835.854 459.345 829.739 471.561 823.629 485.31C823.629 486.838 822.101 488.361 822.101 489.889C828.211 488.361 832.794 485.31 838.909 483.782C843.492 480.727 848.075 479.2 854.19 476.144C854.19 477.672 854.19 477.672 854.19 479.199C851.134 483.782 848.075 489.889 845.02 495.999C843.492 499.054 843.492 500.582 841.964 502.109C837.381 509.743 834.322 518.909 834.322 528.07C832.794 538.764 832.794 547.925 834.322 558.618C834.322 561.674 834.322 564.725 834.322 567.78C834.322 584.579 835.854 599.856 835.854 616.655C835.854 628.872 835.854 641.088 834.322 653.309C834.322 657.888 832.794 660.943 831.267 665.526C831.267 667.054 831.267 668.581 831.267 671.636C831.267 677.743 832.794 683.853 832.794 689.964C832.794 691.491 832.794 691.491 834.322 693.019C835.854 691.491 835.854 691.491 835.854 689.964L841.964 677.743C848.075 665.526 852.662 653.309 858.772 641.088C858.772 639.561 860.3 638.037 860.3 638.037C860.3 636.51 860.3 634.982 860.3 633.455C854.19 621.234 852.662 607.489 851.134 593.745C851.134 590.69 851.134 589.162 851.134 586.107C851.134 572.363 851.134 558.618 852.662 546.398C854.19 532.653 857.245 518.909 860.3 505.165C860.3 505.165 860.3 505.165 861.828 503.637V505.165C860.3 525.015 861.828 544.87 864.887 564.725L872.525 605.962C872.525 607.489 872.525 609.017 874.053 612.072C875.581 610.545 875.581 609.017 875.581 607.489C878.636 601.379 880.168 593.745 883.223 587.635L893.916 550.98C895.448 547.925 893.916 544.87 893.916 541.819C892.389 534.181 889.333 528.07 887.806 520.437C886.278 514.326 884.751 509.743 884.751 503.637L883.223 473.089C883.223 459.345 883.223 444.073 884.751 430.329V428.801C884.751 428.801 884.751 428.801 884.751 430.329C886.278 447.128 889.333 463.928 892.389 480.727L898.503 509.743C898.503 511.271 900.031 511.271 900.031 512.798L906.142 489.889L910.729 468.506C912.256 460.872 913.784 453.234 915.312 447.128C916.839 439.49 918.367 433.38 921.422 425.746C921.422 427.273 921.422 428.801 921.422 430.329L922.95 465.455C922.95 476.144 922.95 485.31 922.95 495.999C922.95 503.637 921.422 511.271 919.894 518.909L918.367 529.598C918.367 531.126 918.367 531.126 918.367 532.653C919.894 532.653 919.894 531.126 921.422 531.126C933.647 520.437 944.345 509.743 951.983 497.527C956.57 489.889 961.153 482.255 965.736 474.617C965.736 473.089 965.736 471.561 967.264 471.561C967.264 473.089 967.264 474.617 967.264 474.617C964.208 483.782 961.153 492.944 956.57 502.109C951.983 514.326 944.345 526.543 936.703 537.236C930.592 544.87 924.482 550.98 915.312 555.563C912.256 557.091 910.729 558.618 909.197 561.674C904.614 580.001 898.503 596.8 892.389 615.127C892.389 616.655 892.389 616.655 892.389 618.183C893.916 619.706 893.916 618.183 895.448 618.183C898.503 615.127 901.559 612.072 903.086 609.017C907.669 604.434 912.256 598.328 916.839 593.745L948.928 557.091C953.515 550.98 958.098 544.87 961.153 538.764C961.153 538.764 961.153 538.764 962.681 538.764C962.681 540.291 962.681 540.291 962.681 541.819C959.625 547.925 958.098 554.036 955.043 558.618C945.873 575.418 936.702 592.217 926.009 609.017C918.367 621.234 907.669 631.927 895.448 639.561C892.389 641.088 889.333 642.616 886.278 644.144C884.751 644.144 883.223 645.671 881.695 645.671C870.998 670.109 860.3 694.546 848.075 717.452C849.602 718.98 849.602 717.452 851.134 717.452L867.942 706.763C870.998 705.235 874.053 702.18 877.108 700.653C881.695 696.07 881.695 696.07 883.223 689.964C884.751 682.325 886.278 674.692 886.278 665.526C886.278 663.998 886.278 662.471 887.806 660.943C889.333 663.998 890.861 668.581 892.389 671.636C893.916 674.692 893.916 679.27 895.448 683.853C896.976 682.325 898.503 682.325 898.503 680.798C909.201 663.998 926.009 645.671 938.23 625.816ZM832.794 737.307C835.854 741.89 849.602 760.217 854.19 763.272L855.717 761.744L858.772 744.945C860.3 740.362 861.828 734.252 863.355 729.673C863.355 728.145 863.355 728.145 863.355 726.618C858.772 728.145 857.245 729.673 852.662 731.201L841.964 735.779C840.437 735.779 835.854 735.779 832.794 737.307ZM890.861 850.325V835.053C890.861 833.525 890.861 831.998 889.333 831.998C887.806 830.47 887.806 828.942 886.278 827.415C880.168 818.253 875.581 809.088 874.053 798.399L872.525 792.288C872.525 793.816 872.525 795.343 870.998 795.343C870.998 806.037 870.998 816.726 874.053 827.415C874.053 828.942 875.581 830.47 875.581 831.998L890.861 850.325ZM880.168 850.325C881.695 861.018 889.333 877.818 895.448 882.4C896.976 877.818 895.448 871.707 892.389 867.124L883.223 853.38L880.168 850.325ZM913.784 874.762C915.312 883.928 915.312 891.562 918.367 899.2C918.367 899.2 918.367 899.2 919.894 900.728L921.422 899.2C924.482 896.145 927.537 891.562 929.064 886.979C932.12 879.345 933.647 870.179 935.175 862.546C936.703 851.852 936.703 841.163 936.703 830.47C936.703 828.942 936.703 828.942 936.703 827.415H935.175C935.175 828.942 933.647 828.942 933.647 830.47C932.12 839.636 929.064 847.269 924.482 854.907C921.422 859.49 918.367 865.597 915.312 870.179C915.312 870.179 913.784 873.235 913.784 874.762ZM909.197 810.615C910.729 809.088 910.729 806.037 912.256 804.509C912.256 802.982 913.784 801.454 913.784 798.399C913.784 796.871 915.312 795.343 915.312 792.288C915.312 790.76 916.839 787.71 916.839 786.182C916.839 784.654 916.839 781.599 916.839 780.071C918.367 783.127 918.367 784.654 918.367 787.71C918.367 801.454 915.312 816.726 909.197 828.942C909.197 830.47 907.669 833.525 909.197 835.053C910.729 841.163 910.729 847.269 912.256 853.38V854.907C913.784 854.907 913.784 854.908 913.784 853.38C921.422 842.691 927.537 831.998 932.12 821.309C933.647 819.781 933.647 816.726 932.12 815.198C927.537 790.761 919.894 767.855 906.142 748C898.503 737.307 890.861 725.09 886.278 712.874C886.278 712.874 886.278 711.346 884.751 711.346C884.751 711.346 884.751 711.346 883.223 709.818C880.168 709.818 880.168 711.346 880.168 714.397C880.168 718.98 878.636 722.035 878.636 726.618C877.108 737.307 875.581 748 874.053 757.161C872.525 763.272 872.525 770.906 870.998 777.016C870.998 780.071 870.998 781.599 872.525 784.654C877.108 795.343 881.695 804.509 887.806 813.67C887.806 815.198 889.333 815.198 889.333 815.198C889.333 813.671 889.333 812.143 889.333 812.143L890.861 778.544C890.861 773.961 890.861 769.382 892.389 764.8C892.389 763.272 892.389 761.744 893.916 760.217L903.086 818.253C907.669 813.67 907.669 812.143 909.197 810.615ZM681.517 920.582L669.292 928.216L647.901 943.488L621.922 961.815C617.339 964.87 611.225 967.925 605.114 970.981L603.587 972.508L605.114 974.036L657.066 987.78C667.764 990.836 679.989 992.363 692.214 995.418C693.742 995.418 696.797 995.418 698.325 996.946C722.775 998.469 748.754 996.946 773.2 992.363C799.178 987.78 822.101 978.619 846.547 967.926L864.887 960.287C872.525 957.237 880.168 952.654 886.278 946.543L896.976 937.382L898.503 935.854C896.976 935.854 896.976 935.854 895.448 935.854C881.695 934.327 867.942 931.271 854.19 931.271C845.019 931.271 835.854 931.271 826.684 931.271C823.628 931.271 822.101 932.799 820.573 934.327C806.82 949.598 791.54 958.764 773.2 967.926C760.974 974.036 748.754 978.619 736.528 981.67C733.473 983.197 730.414 983.197 727.358 984.725C725.831 984.725 725.831 984.725 724.303 984.725C750.281 970.981 774.727 955.709 794.595 934.327C794.595 932.799 793.067 932.799 791.54 932.799L751.809 937.382C748.754 937.382 747.226 938.909 745.694 940.437C742.639 943.488 739.584 946.543 736.528 948.071C722.775 958.764 707.495 969.453 690.687 975.564C684.572 978.619 678.461 980.142 672.347 981.67C672.347 980.142 672.347 980.142 673.879 980.142C690.687 970.981 704.44 957.236 718.193 945.016L719.72 943.488C715.133 943.488 712.078 943.488 695.27 946.543C687.631 948.071 678.461 949.598 670.819 952.654C663.181 955.709 655.539 957.237 647.901 960.287L649.428 958.764C650.956 957.237 652.483 957.236 654.011 955.709C670.819 945.016 689.159 935.854 707.495 928.216C709.023 928.216 710.55 926.688 713.605 926.688C712.078 926.688 712.078 925.161 710.55 925.161L686.1 920.582C686.1 919.055 683.044 920.582 681.517 920.582ZM742.639 896.145C727.358 900.728 712.078 905.306 698.325 911.417C696.797 911.417 696.797 912.944 696.797 912.944C696.797 912.944 696.797 912.944 696.797 914.472H699.853C715.133 914.472 728.886 914.472 744.166 917.527C745.694 917.527 748.754 917.527 750.281 917.527L782.37 912.944C783.897 912.944 785.425 912.944 786.953 911.417C785.425 909.889 783.897 909.889 782.37 908.361C771.672 903.778 759.447 899.2 748.754 896.145C745.694 896.145 744.166 896.145 742.639 896.145ZM793.068 893.089C783.897 893.089 774.727 893.089 767.089 893.089C764.034 893.089 760.975 893.089 759.447 894.617L767.089 896.145C776.259 897.672 785.425 899.2 793.068 902.255C797.65 903.778 803.761 906.834 808.348 908.361C811.403 909.889 814.458 909.889 817.514 909.889C829.739 909.889 841.964 908.361 854.19 909.889L869.47 911.417C870.998 911.417 872.525 911.417 874.053 911.417C874.053 909.889 872.525 909.889 870.998 909.889C846.547 900.728 820.573 894.617 793.068 893.089ZM846.547 851.852C849.602 854.908 852.662 854.908 855.717 851.852C857.245 851.852 857.245 850.325 857.245 850.325C857.245 848.797 858.772 848.797 858.772 847.27C858.772 844.219 854.19 839.636 851.134 839.636C846.547 839.636 843.492 841.163 843.492 845.746C843.492 848.797 843.492 850.325 846.547 851.852ZM829.739 830.47C831.267 830.47 832.794 830.47 832.794 830.47C843.492 830.47 849.602 821.309 845.02 812.143C843.492 807.564 838.909 804.509 834.322 802.981C829.739 801.454 823.628 802.981 820.573 806.037C817.514 807.564 815.986 812.143 817.514 815.198C817.514 824.364 822.101 828.942 829.739 830.47ZM721.248 769.382L722.775 770.906C750.281 783.127 776.259 796.871 802.233 812.143C802.233 812.143 802.233 812.143 803.761 812.143C805.288 807.564 806.82 801.454 809.876 798.399C812.931 795.343 819.041 792.288 823.629 792.288C823.629 790.76 822.101 789.237 822.101 789.237C817.514 783.127 811.403 777.016 806.82 770.906C800.706 763.272 796.123 754.106 790.008 746.472C788.48 744.945 788.48 743.417 786.953 741.89C783.897 744.945 780.842 746.472 777.787 749.528C774.727 752.579 771.672 754.106 767.089 755.634C764.034 757.162 759.447 760.217 756.392 761.744C753.336 763.272 748.754 764.8 745.694 766.327C741.111 767.855 738.056 767.855 733.473 769.382C727.358 767.855 724.303 767.855 721.248 769.382C719.72 769.382 719.72 769.382 721.248 769.382ZM702.912 754.106C704.44 754.106 704.44 754.106 705.967 754.106C719.72 752.579 731.945 749.528 744.166 744.945C754.864 740.362 765.562 734.252 773.2 726.618C791.54 708.291 803.761 686.908 808.348 662.471C811.403 651.782 812.931 641.088 814.458 630.399C814.458 625.816 814.458 621.234 814.458 616.655V550.98C814.458 546.397 814.458 540.291 814.458 535.708C814.458 525.015 817.514 515.854 823.629 506.688C823.629 505.165 825.156 503.637 826.684 502.109C825.156 502.109 825.156 503.637 823.629 503.637C803.761 515.854 785.425 529.598 770.145 547.925C762.506 557.091 754.864 566.252 747.226 575.418C745.694 576.946 745.694 578.473 744.166 580.001C741.111 589.162 739.584 599.856 739.584 609.017C741.111 610.545 741.111 609.017 742.639 607.489C753.336 593.745 765.562 583.052 777.787 572.363C779.315 570.835 779.315 570.835 780.842 570.835C780.842 572.363 780.842 573.89 779.315 573.89L765.562 593.745C759.447 602.906 754.864 612.072 750.281 621.234C750.281 622.761 748.754 624.289 748.754 627.344C753.336 627.344 757.919 625.816 760.975 624.289C765.562 622.761 768.617 621.234 773.2 619.706C777.787 618.183 780.842 616.655 783.897 613.6C788.48 612.072 791.54 609.017 794.595 607.489C797.65 604.434 800.706 602.906 803.761 599.856C805.288 601.379 803.761 601.379 803.761 601.379C797.65 609.017 790.008 616.655 782.37 622.761C771.672 630.399 760.975 636.51 748.754 642.616C747.226 644.144 744.166 644.144 742.639 645.671C741.111 645.671 739.584 647.199 738.056 650.254L730.414 670.109L727.358 677.743C727.358 679.27 727.358 679.27 727.358 680.798H728.886C744.166 676.215 760.975 670.109 774.727 662.471C779.315 659.415 782.37 657.888 786.953 653.309C788.48 654.837 786.953 656.365 785.425 656.365C782.37 660.943 777.787 663.998 773.2 668.581C767.089 674.692 759.447 680.798 751.809 685.381C745.694 689.964 738.056 693.019 730.414 697.597C725.831 699.125 722.775 700.652 718.193 702.18C718.193 703.708 716.661 703.708 716.661 705.235C713.605 715.924 710.55 726.618 707.495 737.307C705.967 741.89 704.44 746.472 702.912 751.055C702.912 751.055 701.38 752.579 702.912 754.106ZM689.159 718.98V720.507H690.687C690.687 718.98 692.214 717.452 692.214 714.397L699.853 693.019C701.38 689.963 701.38 686.908 701.38 683.853C701.38 673.164 701.38 662.471 702.912 651.782C702.912 650.254 702.912 650.254 702.912 648.726C701.38 650.254 701.38 651.782 701.38 653.309C698.325 662.471 695.27 671.636 693.742 680.798L692.214 689.964C689.159 699.125 689.159 709.818 689.159 718.98ZM684.572 645.671C686.1 644.144 687.632 641.088 687.632 639.561C687.632 638.037 689.159 634.982 690.687 633.455C686.1 625.816 669.291 607.489 666.236 604.434L661.653 634.982C666.236 636.51 669.291 638.037 673.879 641.088L684.572 645.671ZM678.462 665.526C675.406 662.471 670.819 662.471 667.764 660.943C664.709 659.415 661.653 657.888 657.066 656.365C657.066 656.365 655.539 657.888 655.539 659.415C654.011 665.526 652.483 671.636 650.956 679.27C650.956 680.798 650.956 680.798 650.956 682.325C655.539 683.853 667.764 685.381 673.879 685.381C675.406 677.743 676.934 671.636 678.462 665.526ZM666.236 732.728C663.181 732.728 661.653 735.779 661.653 738.834C661.653 740.362 663.181 741.89 663.181 743.417C664.709 744.945 666.236 744.945 667.764 744.945C669.291 744.945 670.819 743.417 670.819 741.89V740.362C672.347 735.779 670.819 732.728 666.236 732.728ZM533.294 748C507.316 751.055 482.87 755.634 458.42 763.272C443.139 767.855 427.858 772.433 414.106 778.544C394.241 786.182 377.432 796.871 360.623 810.615C351.455 818.253 340.758 825.891 331.59 833.525C314.781 848.797 296.445 862.546 278.108 876.29L267.411 883.928C249.074 897.672 229.21 906.834 206.289 912.944C204.761 912.944 203.232 912.944 201.704 914.472C203.232 914.472 206.289 915.999 207.817 915.999C220.041 917.527 232.266 919.055 244.49 922.11C252.131 923.633 259.771 926.688 267.411 928.216C288.804 934.327 310.197 940.437 331.59 945.016C352.983 949.598 374.376 952.654 397.297 954.181C414.106 955.709 432.441 954.181 449.25 949.598C473.7 945.015 498.151 937.382 521.069 925.161C530.239 920.582 540.937 914.472 548.575 906.834C565.383 891.562 580.664 874.762 594.417 854.907C599.004 848.797 602.059 842.691 606.642 836.58C612.752 828.942 617.339 819.781 623.45 812.143C635.675 796.871 649.428 781.599 666.236 770.906C667.764 770.906 667.764 769.382 669.292 769.382C669.292 767.855 667.764 767.855 666.236 767.855C661.653 767.855 657.066 767.855 652.483 769.382L621.922 773.961C618.867 773.961 617.339 775.489 617.339 777.016C617.339 778.544 615.812 780.072 615.812 781.599C606.642 795.343 597.472 809.088 586.778 821.309C580.664 827.419 574.553 833.525 568.438 839.636C556.217 850.325 543.992 861.018 530.239 868.652C530.239 868.652 528.712 868.652 528.712 870.179C528.712 868.652 528.712 868.652 530.239 868.652C543.992 856.435 556.217 842.691 566.911 827.415L579.136 809.088L595.944 784.654C597.472 783.127 597.472 781.599 599.004 780.071C597.472 780.071 597.472 780.071 595.944 780.071C583.719 783.127 569.97 786.182 557.745 790.76C556.217 790.76 554.69 792.288 554.69 793.816C551.63 801.454 547.047 809.088 540.937 815.198C533.295 825.891 524.124 836.581 514.959 847.27C513.431 848.797 511.904 850.325 510.376 851.852C492.036 868.652 472.172 883.928 449.25 893.089C446.194 894.617 444.667 894.617 441.611 896.145V894.617C455.364 886.979 466.062 876.29 476.755 865.597C482.87 859.491 488.981 851.852 495.091 844.219C499.678 839.636 502.733 833.525 507.316 828.942L527.184 804.509C528.712 802.982 528.712 801.454 530.239 799.926C528.712 798.399 527.184 799.926 525.656 799.926L481.342 816.726C472.172 819.781 463.002 824.364 453.837 828.942C450.777 830.47 449.25 831.998 447.722 835.053C443.139 850.325 433.969 864.073 421.746 874.762C407.993 886.979 392.713 897.672 375.904 906.834C371.32 909.889 366.736 911.417 363.68 914.472C363.68 912.944 365.208 912.944 365.208 911.417C375.904 902.255 386.601 893.089 395.769 882.4C403.409 874.762 409.521 867.124 415.634 857.963L424.802 845.746C424.802 844.219 426.33 842.691 426.33 842.691C424.802 842.691 423.274 844.219 423.274 844.219L411.05 850.325C392.713 859.49 374.376 867.124 356.039 873.235C348.399 876.29 339.23 877.817 331.59 879.345C328.534 879.345 323.95 880.873 319.366 879.345H322.422C328.534 879.345 334.646 876.29 340.758 874.762C348.399 871.707 356.039 867.124 362.151 862.546C366.736 859.49 371.32 856.435 375.904 853.38C386.601 845.746 395.769 839.636 407.993 833.525C409.522 831.998 411.05 831.998 412.578 830.47C411.05 830.47 409.522 830.47 407.993 830.47C386.6 828.942 365.208 830.47 345.343 835.053C343.815 835.053 342.287 836.58 340.758 836.58C340.758 835.053 343.815 833.525 345.343 833.525C366.736 824.364 389.657 819.781 412.578 816.726C420.218 815.198 427.858 815.198 435.497 818.253C438.556 819.781 441.611 818.253 444.667 816.726C466.062 806.037 488.981 796.871 511.904 787.71C513.431 787.71 514.959 787.71 516.486 784.654C514.959 784.654 514.959 784.654 513.431 784.654C510.376 784.654 505.789 784.654 502.733 784.654H466.062C449.25 784.654 433.969 786.182 418.69 789.237C415.634 789.237 412.578 790.76 409.522 790.76C411.05 789.237 412.578 789.237 414.106 787.71C430.914 781.599 446.194 777.016 463.002 772.433C469.117 770.906 476.755 769.382 484.398 767.855C499.678 764.8 514.959 764.8 530.239 767.855C534.822 769.382 539.405 770.906 543.992 772.433C545.52 773.961 548.575 773.961 550.103 772.433C562.328 767.855 573.026 764.8 585.251 761.744C586.778 761.744 586.778 761.744 586.778 760.217L585.251 758.689C573.026 754.106 559.273 749.528 545.52 746.472C539.405 748 536.35 748 533.294 748ZM504.261 657.888C508.844 667.054 518.014 679.27 521.069 683.853C525.656 680.798 530.239 676.215 536.35 673.164C536.35 671.636 534.822 671.636 534.822 670.109C533.295 670.109 533.295 668.581 531.767 668.581C524.124 663.998 514.959 659.415 507.316 656.365C505.789 656.365 505.789 654.837 504.261 654.837C504.261 656.365 504.261 657.888 504.261 657.888ZM513.431 638.037C513.431 636.51 513.431 634.982 513.431 634.982C507.316 622.761 502.733 609.017 501.206 595.273C499.678 587.635 499.678 580.001 498.151 572.363V567.78L463.002 541.819C461.475 541.819 463.002 543.347 463.002 544.87C464.53 558.618 464.53 572.363 464.53 587.635C464.53 592.217 464.53 595.273 464.53 599.856C464.53 601.379 464.53 604.434 466.062 605.962L478.283 616.655L479.811 618.183C479.811 616.655 479.811 616.655 479.811 615.127L481.342 599.856C481.342 598.328 482.87 595.273 482.87 593.745C482.87 602.906 484.398 610.545 485.925 618.183C485.925 619.706 487.453 622.761 487.453 624.289C487.453 625.816 488.981 627.344 490.508 627.344C498.151 628.872 505.789 633.454 513.431 638.037ZM493.563 677.743C493.563 676.219 493.563 676.215 493.563 674.692C488.981 665.526 487.453 656.364 485.925 645.671C485.925 642.616 484.398 639.561 481.342 638.037C476.755 633.454 470.645 630.399 466.062 625.816H463.002C461.475 625.816 461.475 627.344 461.475 627.344C461.475 631.927 461.475 636.51 461.475 641.088C461.475 647.199 459.947 653.309 458.42 659.415C456.892 662.471 456.892 665.526 456.892 668.581C463.002 670.109 488.981 677.743 493.563 677.743ZM447.722 477.672C453.837 494.471 456.892 512.798 459.947 529.598C459.947 529.598 459.947 529.598 459.947 531.126C459.947 532.653 461.475 534.181 463.002 535.708L488.981 547.925C492.036 549.453 493.563 549.453 498.151 550.98C498.151 538.764 499.678 528.07 499.678 517.381C501.206 506.688 502.733 495.999 504.261 485.31C502.733 483.782 501.206 483.782 498.151 483.782C485.925 480.727 475.228 479.199 463.002 477.672L450.777 476.144C449.25 476.144 449.25 476.144 447.722 476.144C446.194 474.617 447.722 476.144 447.722 477.672ZM406.465 578.473C409.522 575.418 412.578 570.835 414.106 566.252C417.162 561.674 418.69 557.091 420.218 552.508C421.746 547.925 423.274 543.347 424.802 538.764C426.33 534.181 427.858 529.598 429.386 525.015V526.543C429.386 538.764 427.858 549.453 424.802 561.674C423.274 570.835 418.69 580.001 414.106 587.635C412.578 589.162 412.578 590.69 411.05 592.217C409.522 593.745 409.522 595.273 409.522 596.8C411.05 601.379 412.578 604.434 414.106 609.017C418.69 619.706 423.274 628.872 429.386 639.561C430.914 644.144 433.969 648.726 437.029 651.782C438.556 651.782 438.556 650.254 438.556 650.254C437.029 634.982 438.556 619.706 440.084 605.962C441.611 590.69 441.611 576.946 441.611 561.674C440.084 541.819 437.029 521.964 432.441 502.109C430.914 495.999 429.386 489.889 426.33 483.782C417.162 460.872 404.937 437.962 389.657 418.108C372.848 395.198 351.455 375.343 328.534 357.016C314.781 346.327 302.557 337.161 288.804 326.472C288.804 326.472 287.276 326.472 285.748 324.944C285.748 326.472 285.748 326.472 285.748 328C293.388 347.854 297.973 369.237 304.085 390.619L320.894 453.234C323.95 463.928 327.006 474.617 331.59 485.31C333.118 488.361 334.646 491.416 336.174 492.944C340.759 499.054 345.343 503.637 351.455 508.216L363.68 518.909C365.208 518.909 365.208 520.437 366.736 520.437C366.736 518.909 366.736 518.909 366.736 517.381C366.736 509.743 365.208 500.582 365.208 492.944C365.208 479.199 363.68 466.983 362.151 453.234L365.208 444.073C365.208 441.018 365.208 437.962 363.68 434.907C363.68 434.907 363.68 433.38 363.68 431.852C365.208 433.38 365.208 433.38 365.208 433.38C366.736 436.435 366.736 437.962 368.264 441.018C375.904 465.455 382.016 491.416 389.657 515.854V517.381C391.185 517.381 391.185 515.854 391.185 515.854C398.825 500.582 406.465 483.782 411.05 465.455V463.928C411.05 470.034 409.522 477.672 409.522 483.782C407.993 495.999 404.937 508.216 401.881 520.437C400.353 528.07 398.825 528.07 394.241 537.236C397.297 547.925 404.937 573.89 406.465 578.473ZM398.825 676.215C400.353 676.215 403.409 674.692 404.937 674.692C401.881 674.692 400.353 674.692 398.825 673.164C383.544 671.636 368.264 671.636 351.455 673.164C319.366 677.743 288.804 683.853 259.771 697.597C258.243 697.597 258.243 697.597 256.715 699.125C258.243 699.125 261.299 699.125 262.827 699.125C271.996 697.597 279.636 697.597 288.804 697.597C296.445 697.597 304.085 699.125 311.725 702.18C314.782 703.708 316.31 703.708 319.366 702.18L351.455 689.964C366.736 683.853 382.016 679.27 398.825 676.215ZM311.725 743.417C313.253 743.417 313.253 741.89 314.781 741.89C336.174 726.618 362.152 708.291 365.208 703.708H363.68C351.455 708.291 340.759 711.346 328.534 715.924C327.006 715.924 325.478 717.452 325.478 718.98C322.422 726.618 317.838 732.728 313.253 740.362C311.725 741.89 311.725 741.89 311.725 743.417ZM15.2807 828.942C30.5613 831.997 45.8419 833.525 61.1225 833.525H64.1786C94.74 835.053 123.773 830.47 152.806 822.836C174.2 816.726 194.064 809.088 213.929 799.926C235.322 789.237 255.187 778.544 276.58 766.327C284.22 761.744 282.692 763.272 287.276 755.634C291.86 748 296.444 738.834 301.029 729.673C301.029 728.145 301.029 728.145 302.557 726.618C301.029 726.618 299.501 728.145 297.973 728.145C287.276 732.724 276.58 737.307 265.883 743.417C264.355 743.417 262.827 744.945 261.299 744.945C256.715 746.472 252.131 749.528 250.603 755.634C250.603 757.162 249.074 758.689 247.546 758.689C233.794 775.489 218.513 789.237 198.648 796.871C197.12 796.871 197.12 798.399 197.12 798.399C197.12 798.399 197.12 796.871 198.648 796.871C200.176 795.343 201.704 795.343 201.704 793.816C212.401 786.182 221.57 777.016 227.682 764.8V763.272C227.682 763.272 227.682 763.272 227.682 761.744C223.098 761.744 220.041 764.8 215.457 766.327C210.873 767.855 207.817 769.382 203.232 770.906L191.008 775.489C186.424 777.016 183.368 778.544 178.784 781.599L166.559 787.71C163.503 789.237 158.919 792.288 154.334 793.816C155.862 790.76 158.919 789.237 161.975 787.71C178.784 775.489 195.592 764.8 212.401 754.106C213.929 752.579 215.457 752.579 216.985 751.055C216.985 751.055 216.985 751.055 216.985 749.528C215.457 749.528 213.929 749.528 213.929 749.528C204.761 749.528 197.12 749.528 187.952 749.528L171.143 751.055C169.615 751.055 169.615 751.055 168.087 751.055V749.528C181.84 744.945 194.064 740.362 209.345 737.307C215.457 735.779 221.57 735.779 227.682 735.779C230.738 735.779 235.322 735.779 238.378 737.307C239.906 737.307 242.962 737.307 244.49 737.307C247.546 735.779 250.603 734.252 253.659 732.728C264.355 726.618 276.58 722.035 287.276 715.924C288.804 715.924 288.804 714.397 290.332 714.397C290.332 712.873 288.804 712.874 288.804 712.874C279.636 711.346 271.996 709.818 262.827 708.291C256.715 708.291 249.074 708.291 242.962 706.763C239.906 706.763 236.85 706.763 235.322 708.291C207.817 722.035 180.312 734.251 155.862 751.055L134.47 763.272C125.301 769.383 116.133 773.961 108.492 780.071C96.2681 787.71 84.0437 795.343 71.8192 802.981C56.5383 812.143 41.2577 818.253 24.4491 824.364C21.3929 825.891 19.8649 825.891 16.8087 825.891C15.2807 825.891 15.2807 827.419 15.2807 828.942C13.7526 828.942 15.2807 828.942 15.2807 828.942Z" fill="#0F2D52"/>
</svg>
