<svg width="532" height="767" viewBox="0 0 532 767" fill="none" xmlns="http://www.w3.org/2000/svg">
<path d="M532 886.576L530.867 885.441C519.523 875.23 508.179 865.018 495.703 854.807C487.762 846.862 479.821 838.92 471.88 830.977C466.209 825.305 461.671 818.496 457.135 811.689C450.33 801.476 443.524 791.265 435.583 782.188C433.313 778.784 431.045 776.514 428.777 773.11C426.507 770.842 425.374 767.436 423.104 765.168C421.971 762.899 420.836 761.764 419.701 759.494C417.433 756.09 415.165 752.686 414.03 749.283C414.03 748.147 412.895 748.147 412.895 747.012C412.895 745.879 411.762 745.879 411.762 744.744C410.627 743.609 410.627 742.474 409.493 741.34C407.225 737.935 406.09 734.531 403.822 731.127C402.687 729.992 402.687 727.724 401.554 726.589C401.554 726.589 401.554 725.453 400.419 725.453C400.419 725.453 400.419 724.32 399.284 724.32C394.746 715.243 390.21 706.165 385.672 697.087C384.537 693.684 382.269 690.28 381.134 686.876C381.134 685.741 380.001 684.606 380.001 683.471C378.866 681.202 377.731 677.799 376.598 675.529C373.195 665.318 369.792 656.24 366.389 646.027C365.254 642.624 364.119 638.085 362.986 634.681C358.449 617.661 353.911 600.641 349.373 583.621C344.837 563.197 340.299 542.774 338.031 522.35C336.896 517.811 336.896 512.139 335.761 507.6C335.761 506.465 335.761 506.465 335.761 505.33C335.761 503.061 334.628 500.791 334.628 497.387C334.628 492.849 333.493 487.177 333.493 482.638C332.358 471.29 332.358 461.079 332.358 449.731C332.358 444.059 332.358 438.385 333.493 432.713C333.493 428.174 333.493 423.635 334.628 420.232C334.628 415.693 335.761 410.019 335.761 405.48C335.761 404.345 335.761 402.076 335.761 400.941C335.761 399.806 335.761 397.538 336.896 396.402V395.269C336.896 392.999 336.896 390.73 338.031 388.46L339.164 378.249C339.164 377.114 339.164 377.114 339.164 375.979C339.164 374.844 339.164 372.575 340.299 371.44C341.434 365.768 341.434 360.094 342.567 354.42C342.567 353.287 342.567 351.016 343.702 349.881C344.837 341.939 345.97 335.131 348.24 327.189C349.373 322.65 350.508 319.246 351.643 315.843C352.776 313.572 352.776 311.304 353.911 309.034C353.911 307.898 355.046 306.765 355.046 304.495V303.362C355.046 302.226 355.046 301.091 356.179 301.091C356.179 299.956 356.179 299.956 357.314 298.823C362.986 281.803 368.657 264.783 375.463 248.898C376.598 247.763 376.598 245.492 377.731 244.359C377.731 243.224 378.866 242.089 378.866 240.953C378.866 239.82 380.001 238.685 380.001 237.55C382.269 233.011 383.404 228.472 385.672 223.935C386.807 220.53 387.94 217.126 390.21 213.723C391.343 212.587 391.343 211.454 392.478 209.184C393.613 205.78 395.881 202.376 397.016 198.973L398.149 197.838C399.284 194.434 401.554 191.028 402.687 187.625C402.687 186.492 403.822 185.356 403.822 184.221V183.086C404.957 181.953 404.957 180.818 406.09 179.682C406.09 181.953 404.957 183.086 404.957 184.221C404.957 185.356 403.822 186.492 403.822 187.625C402.687 193.299 400.419 198.973 398.149 203.51C397.016 206.915 395.881 210.319 394.746 213.723C394.746 214.858 393.613 215.991 393.613 217.126C392.478 222.8 390.21 227.339 389.075 233.011C389.075 234.146 387.94 235.281 387.94 236.417C387.94 237.55 387.94 237.55 386.807 238.685C384.537 245.492 383.404 253.435 381.134 260.244C381.134 261.379 380.001 262.512 380.001 263.647C380.001 264.783 380.001 265.916 378.866 267.051C378.866 267.051 378.866 267.051 378.866 268.186C378.866 270.455 377.731 272.725 377.731 274.994C377.731 276.129 377.731 277.264 376.598 278.399C375.463 285.206 374.328 292.014 373.195 297.688C373.195 298.823 373.195 299.956 373.195 299.956C373.195 302.226 372.06 303.362 372.06 305.63C372.06 306.765 372.06 309.034 370.925 310.169C370.925 311.304 370.925 313.572 369.792 314.708C369.792 318.111 368.657 320.38 368.657 323.785C368.657 326.054 367.522 328.324 367.522 330.592C367.522 335.131 366.389 339.67 366.389 344.209C366.389 346.477 366.389 347.613 366.389 349.881C366.389 355.555 365.254 361.229 365.254 366.901C365.254 370.305 365.254 373.71 365.254 377.114C365.254 380.517 365.254 385.056 365.254 388.46C365.254 396.402 365.254 403.212 365.254 411.154C365.254 412.287 365.254 414.558 365.254 415.693C365.254 419.096 365.254 422.5 365.254 425.904C365.254 427.039 365.254 427.039 365.254 428.174C365.254 430.442 365.254 432.713 365.254 434.981V436.116C365.254 444.059 366.389 453.136 367.522 461.079C368.657 470.157 369.792 479.232 370.925 488.31C372.06 491.713 372.06 496.252 373.195 499.658C373.195 501.926 374.328 504.195 374.328 506.465C375.463 511.004 376.598 516.676 377.731 521.215C377.731 523.485 378.866 524.62 378.866 526.889C378.866 528.024 378.866 529.157 380.001 530.292C380.001 531.428 381.134 533.696 381.134 534.831C383.404 545.044 385.672 554.12 389.075 563.197C390.21 567.736 391.343 571.14 392.478 575.679C394.746 582.488 397.016 588.16 399.284 594.969C400.419 597.237 400.419 599.508 401.554 601.776C401.554 602.911 402.687 604.047 402.687 604.047C402.687 605.18 402.687 605.18 403.822 606.315C403.822 607.45 404.957 609.719 404.957 610.854V611.989C404.957 613.122 404.957 613.122 406.09 614.257C406.09 615.393 407.225 616.528 407.225 617.661C407.225 618.796 408.359 619.931 408.359 622.2C408.359 623.335 409.493 624.47 409.493 626.739C411.762 631.278 412.895 635.816 415.165 640.355C416.298 641.49 416.298 643.759 417.433 644.894C418.568 648.298 419.701 650.566 420.836 653.971C420.836 655.105 421.971 655.105 421.971 656.24C421.971 657.375 423.104 658.509 423.104 659.644C424.239 661.914 424.239 663.047 425.374 665.318C425.374 666.453 426.507 666.453 426.507 667.586C427.642 669.856 428.777 670.992 428.777 673.26C429.91 675.529 431.045 677.799 432.18 680.067C433.313 683.473 435.583 685.741 436.716 689.145C437.851 691.415 438.986 693.684 440.121 695.954C440.121 697.087 441.254 698.223 441.254 699.358C442.389 701.626 443.524 703.897 445.792 707.3C446.927 709.569 448.06 711.839 449.195 714.107C450.33 716.378 452.598 719.781 453.733 722.05C454.866 723.185 454.866 724.32 456.001 725.453C457.135 727.724 458.269 729.992 459.403 731.127C459.403 732.263 460.538 732.263 460.538 733.398C461.671 735.666 462.806 736.801 463.941 739.07C463.941 740.205 465.074 740.205 465.074 741.34C465.074 741.34 465.074 741.34 465.074 742.474C466.209 743.609 467.344 745.879 467.344 747.012C468.477 748.147 468.477 749.283 469.612 750.416C469.612 751.551 470.747 752.686 470.747 752.686C473.015 757.225 476.418 760.629 478.686 765.168C478.686 766.303 479.821 766.303 479.821 767.436C480.956 769.706 483.224 771.975 484.359 774.245C485.494 776.514 486.627 777.649 487.762 778.784C494.568 787.862 501.374 795.804 508.18 803.746C513.85 809.419 519.523 816.228 525.194 821.9C526.329 823.035 527.464 824.17 528.597 825.305L529.732 826.439V796.937C529.732 795.804 528.597 795.804 527.464 794.669C525.194 792.398 522.926 790.13 521.791 787.862C514.985 779.917 508.179 770.842 501.374 761.764L500.239 760.629C499.106 759.494 497.971 758.36 496.836 756.09C495.703 753.821 494.568 752.686 493.433 750.416C493.433 749.283 492.3 749.283 492.3 748.148C492.3 748.148 492.3 748.147 492.3 747.012C491.165 745.879 490.03 743.609 488.897 742.474C487.762 741.34 487.762 740.205 486.627 739.07C486.627 739.07 486.627 737.935 485.494 737.935C484.359 735.666 483.224 734.531 482.091 732.263C482.091 732.263 482.091 731.127 480.956 731.127C480.956 731.127 480.956 729.992 479.821 729.992C479.821 728.859 478.686 728.859 478.686 727.724C478.686 726.589 477.553 725.453 477.553 724.32C477.553 724.32 477.553 723.185 476.418 723.185C475.283 722.05 475.283 720.917 474.15 718.646C473.015 717.511 473.015 716.378 471.88 715.243C470.747 714.107 470.747 712.972 469.612 711.839C468.477 710.704 468.477 709.569 467.344 708.435L466.209 707.3C465.074 705.03 463.941 702.761 462.806 700.491C461.671 698.223 460.538 695.954 459.403 693.684C457.135 689.145 453.733 683.471 451.463 677.799C450.33 676.664 450.33 674.395 449.195 673.26C448.06 672.125 448.06 670.992 446.927 669.856C446.927 668.721 445.792 668.721 445.792 667.586C445.792 666.453 444.657 665.318 444.657 665.318V664.182C444.657 663.047 443.524 663.047 443.524 661.914C443.524 660.779 442.389 659.644 442.389 658.508C442.389 657.375 441.254 656.24 441.254 655.105C441.254 653.972 440.121 653.972 440.121 652.836C440.121 651.701 438.986 650.566 438.986 649.433C438.986 648.298 437.851 647.162 437.851 646.027C437.851 646.027 437.851 644.894 436.716 644.894C435.583 642.624 434.448 640.355 433.313 636.951C432.18 634.681 431.045 631.278 429.91 629.009V627.874L427.642 623.335C427.642 622.2 427.642 622.2 426.507 621.065V619.931V618.796L425.374 617.661C424.239 615.393 423.104 613.122 423.104 610.854C423.104 609.719 423.104 609.719 421.971 608.583C420.836 605.18 419.701 602.911 418.568 599.508C416.298 593.834 415.165 588.16 412.895 582.488C412.895 581.353 411.762 580.217 411.762 579.084C411.762 577.949 410.627 576.814 410.627 576.814C409.493 573.41 408.359 571.14 408.359 567.736C407.225 565.468 407.225 563.197 406.09 560.929C404.957 557.525 403.822 552.986 402.687 549.583C400.419 540.505 398.151 531.428 395.881 522.35C395.881 521.215 394.746 518.946 394.746 516.676C397.016 518.946 397.016 520.082 398.149 522.35C399.284 524.62 400.419 526.889 401.554 530.292C402.687 532.563 403.822 533.696 403.822 535.966C406.09 539.37 407.225 542.774 409.493 546.177C409.493 547.312 410.627 547.312 410.627 548.448C411.762 551.851 414.03 554.12 415.165 557.525C415.165 558.659 416.298 558.659 416.298 559.794C417.433 562.064 418.568 563.197 419.701 565.468C419.701 566.601 420.836 567.736 420.836 568.871C421.971 570.006 423.104 572.275 423.104 573.41C425.374 576.814 427.642 581.353 429.91 584.756C429.91 585.891 431.045 587.026 431.045 587.026C431.045 588.16 432.18 588.16 432.18 589.295C433.313 590.43 434.448 592.699 435.583 593.834C440.121 600.641 444.657 607.45 449.195 615.393C449.195 616.528 450.33 616.528 450.33 617.661L451.463 618.796C452.598 619.931 453.733 621.065 453.733 623.335C454.866 624.47 454.866 625.604 456.001 626.739C457.135 627.874 458.269 630.142 459.403 631.277C460.538 633.546 461.671 634.681 462.806 636.951V638.085C463.941 641.49 465.074 643.759 467.344 647.162C468.477 649.433 469.612 652.836 471.88 655.105C471.88 656.24 473.015 657.375 473.015 657.375C473.015 657.375 473.015 657.375 473.015 658.508C473.015 659.644 474.15 659.644 474.15 660.779C474.15 660.779 474.15 660.779 474.15 661.914C474.15 663.047 475.283 664.182 475.283 664.182V665.318C476.418 666.453 476.418 667.586 477.553 668.721C478.686 670.992 479.821 672.125 480.956 674.395C482.091 676.664 484.359 680.067 485.494 682.338C486.627 683.473 487.762 685.741 487.762 686.876C488.897 689.145 490.03 691.415 491.165 692.549C492.3 694.819 494.568 698.223 495.703 700.491C495.703 700.491 495.703 700.491 495.703 701.626C496.836 703.896 497.971 705.03 499.106 707.3C505.911 718.646 513.85 729.992 520.658 741.34C520.658 742.474 521.791 742.474 521.791 743.609L522.926 744.744V660.779C522.926 659.644 522.926 659.644 521.791 658.508C513.85 638.085 509.314 616.528 504.777 594.969C503.642 589.295 502.509 583.621 500.239 576.814C494.568 558.659 490.03 539.37 486.627 520.082C486.627 518.946 486.627 518.946 485.494 517.811C484.359 520.081 484.359 523.485 484.359 525.754C483.224 534.831 482.091 543.909 482.091 552.986C482.091 562.064 482.091 572.275 482.091 581.353C482.091 582.488 482.091 583.621 480.956 583.621C480.956 583.621 480.956 583.621 479.821 582.488C479.821 581.353 478.686 580.217 478.686 579.084C469.612 550.716 463.941 522.35 461.671 492.849C460.538 484.906 460.538 476.964 458.269 469.021C456.001 457.675 454.866 445.194 453.733 432.713C453.733 427.039 453.733 421.365 452.598 414.558C452.598 413.422 452.598 413.422 451.463 412.287C450.33 414.558 450.33 416.826 450.33 417.961C446.927 430.442 443.524 442.924 441.254 455.405C438.986 466.751 437.851 479.232 438.986 490.58C438.986 492.849 438.986 495.119 440.121 497.387C442.389 515.543 444.657 533.696 449.195 551.851C452.598 563.197 456.001 574.545 458.269 585.891C458.269 587.027 459.403 588.16 459.403 590.43C458.269 588.16 457.135 587.026 456.001 584.756C449.195 570.006 443.524 555.255 436.716 540.505C429.91 524.62 423.104 508.734 417.433 491.714C411.762 475.829 406.09 461.079 401.554 445.194C392.478 421.365 384.537 397.538 377.731 372.575C376.598 369.171 376.598 366.901 376.598 363.497C376.598 355.555 377.731 346.477 377.731 338.535C381.134 301.091 389.075 264.783 399.284 229.607C401.554 223.935 402.687 217.126 404.957 211.454C408.359 197.838 412.895 184.221 417.433 170.605C421.971 154.72 428.777 139.97 434.448 125.219C437.851 117.276 441.254 108.199 444.657 100.257C453.733 79.8325 462.806 60.5434 474.15 41.2541C474.15 40.1195 475.283 40.1193 474.15 38.9847L473.015 40.1195C461.671 51.466 450.33 62.8126 440.121 75.2939C435.583 80.9673 429.91 87.7751 425.374 93.4485C419.701 100.257 414.03 108.199 408.359 115.007C403.822 121.815 399.284 127.489 394.746 134.296C383.404 152.451 373.195 170.605 365.254 189.895C360.717 198.973 357.314 208.049 353.911 218.261C353.911 219.396 352.776 220.53 351.643 221.665C350.508 220.53 350.508 219.396 350.508 218.261C350.508 213.723 349.373 208.049 349.373 203.51C349.373 193.299 348.24 196.702 351.643 186.492C353.911 180.818 356.179 175.144 356.179 169.472C356.179 168.336 357.314 166.066 358.449 164.933C362.986 160.394 366.389 155.855 369.792 151.316C373.195 145.642 376.598 138.835 377.731 132.028C378.866 127.489 378.866 124.084 380.001 119.546C381.134 105.93 380.001 93.4485 377.731 79.8325C375.463 68.486 374.328 56.0046 370.925 44.6581C367.522 34.4461 367.522 24.2343 367.522 12.8876C367.522 9.48363 368.657 4.94502 368.657 1.54101C368.657 -0.728394 368.657 -2.99761 368.657 -5.26701V-6.40162C367.522 -5.26701 366.389 -4.1324 365.254 -1.863C374.328 2.67561 373.195 4.94502 372.06 6.07963C368.657 10.6182 365.254 15.1569 360.717 20.8303C353.911 28.7729 347.105 36.7155 339.164 43.5234C336.896 45.7928 334.628 49.1968 332.358 51.466C327.822 58.274 323.284 63.9472 319.881 70.7552C314.209 80.9673 309.673 92.3139 307.403 103.66C305.135 112.738 305.135 122.95 308.538 132.028C309.673 136.565 310.806 141.104 313.075 144.509C316.478 151.316 319.881 158.124 325.552 162.662C328.955 164.933 330.09 168.336 331.225 171.74C331.225 174.008 333.493 176.279 334.628 178.547C335.761 179.682 335.761 181.953 336.896 183.086C338.031 185.356 339.164 188.76 339.164 192.164C339.164 200.106 340.299 208.049 340.299 215.991C341.434 230.743 342.567 244.359 343.702 259.109C343.702 262.512 343.702 265.916 342.567 269.321C335.761 288.61 330.09 309.034 326.687 329.457C325.552 337.4 324.419 344.209 323.284 352.151C323.284 353.287 323.284 353.287 322.149 353.287C322.149 352.151 321.016 351.016 321.016 349.881C317.613 340.805 314.209 330.592 311.941 321.515C305.135 298.823 299.464 276.129 294.926 252.301C289.255 223.935 285.852 195.567 282.449 168.336C280.179 150.181 277.911 130.893 275.643 112.738C274.508 100.256 273.373 87.7751 273.373 75.2939C273.373 70.7553 273.373 67.3512 273.373 62.8126C272.238 41.2541 273.373 18.5609 275.643 -2.99761C275.643 -8.67102 276.776 -15.4788 277.911 -21.1523C280.179 -31.3641 282.449 -40.4415 284.717 -50.6534C284.717 -51.788 285.852 -52.9227 285.852 -54.0574C285.852 -54.0574 284.717 -54.0574 284.717 -52.9227C284.717 -52.9227 284.717 -51.788 283.582 -50.6534C281.314 -44.9801 279.046 -39.3067 275.643 -33.6335C271.105 -23.4215 266.567 -12.075 263.165 -0.728394C257.494 18.5609 251.821 38.9847 247.285 58.274C242.747 75.2939 239.344 92.3139 238.209 109.334C237.076 124.084 235.941 137.7 235.941 152.451C235.941 164.933 235.941 177.414 237.076 189.895C237.076 198.973 238.209 209.184 239.344 218.261C240.479 229.607 241.612 240.953 242.747 252.301C242.747 253.435 242.747 253.435 242.747 254.57C242.747 254.57 241.612 254.57 241.612 253.435C238.209 246.627 233.673 240.953 229.135 235.281C226.865 231.878 223.462 227.339 221.194 223.935C216.657 217.126 212.121 211.454 206.448 204.645C198.509 195.567 189.433 186.492 179.224 179.682C178.09 179.682 178.09 178.547 176.956 178.547C175.821 177.414 175.821 177.414 175.821 176.279C174.687 168.336 173.553 160.394 175.821 153.585C179.224 145.642 180.359 136.565 181.493 127.489C181.493 122.95 182.627 119.546 187.165 118.411C200.777 107.064 208.718 93.4485 207.583 76.4286C207.583 68.486 206.448 61.678 205.315 53.7354C203.045 37.8501 198.509 21.9649 193.971 7.21423C191.701 -0.728393 189.433 -9.80562 187.165 -17.7482C186.03 -21.1523 186.03 -24.5563 184.896 -27.9601C182.627 -38.1721 181.493 -48.3841 182.627 -59.7307C182.627 -60.8653 182.627 -60.8653 181.493 -62C182.627 -60.8653 181.493 -60.8653 181.493 -59.7307C176.956 -56.3267 173.553 -51.788 169.015 -48.3841C161.075 -41.5761 154.269 -32.4989 147.463 -24.5563C145.195 -22.2869 142.926 -18.8829 141.791 -15.4788C137.254 -5.26701 132.717 3.81022 129.314 15.1569C124.777 28.7729 121.374 43.5233 120.239 58.274C120.239 62.8126 120.239 67.3512 120.239 71.8898C121.374 83.2365 125.911 93.4485 130.448 103.66C132.717 108.199 134.986 111.603 138.389 115.007C139.523 116.142 140.657 117.276 140.657 119.546C140.657 121.815 141.792 124.084 142.926 127.489C146.329 134.296 147.463 142.239 148.597 150.181C149.732 154.72 150.866 159.259 152 163.798C153.135 166.066 154.269 168.336 154.269 170.605C154.269 171.74 154.269 171.74 154.269 172.875C150.866 175.144 148.597 176.279 146.329 178.547C141.791 181.953 137.254 185.356 132.717 187.625C127.045 191.028 121.374 194.434 116.836 197.838C110.03 203.51 105.493 210.319 102.09 218.261C98.6871 227.339 94.1498 237.55 90.7467 247.763C86.2094 259.109 81.6721 270.455 76.0004 281.803C73.7318 286.342 70.3289 290.88 68.0602 296.552C63.5228 305.63 57.8512 314.708 51.0453 322.65C47.6422 326.054 44.2392 329.457 40.8363 332.861C35.1646 337.4 28.3588 341.939 21.5527 344.209C20.4183 344.209 20.4183 344.209 20.4183 345.342C24.9556 346.477 27.2244 346.477 30.6273 346.477C32.8961 346.477 36.299 345.342 38.5676 345.342C47.6424 344.209 55.5826 343.074 64.6572 340.805C71.4631 339.67 78.2691 337.4 85.0752 333.996C97.5527 328.324 110.03 321.515 120.239 313.572C125.911 310.169 130.448 305.63 134.986 301.091C146.329 290.88 155.404 279.532 161.075 265.916C162.209 263.647 162.209 262.512 163.344 260.244L164.478 259.109C167.881 262.512 169.015 263.647 170.15 268.186C170.15 269.321 170.15 270.455 170.15 270.455C172.418 282.936 174.687 295.417 178.09 307.898C184.896 332.861 192.836 358.959 200.777 383.921C201.912 386.191 201.912 388.46 203.045 391.864C203.045 392.999 204.18 392.999 203.045 394.134C201.912 394.134 200.777 394.134 199.642 392.999C195.106 391.864 190.568 390.73 186.03 389.595C182.627 388.46 179.224 388.46 174.687 387.325C162.209 387.325 149.732 387.325 137.254 389.595C127.045 390.73 117.971 392.999 107.762 394.134H106.627C106.627 394.134 105.493 394.134 105.493 395.269C105.493 395.269 105.493 395.269 106.627 395.269C107.762 395.269 107.762 395.269 108.896 395.269C116.836 396.402 124.777 398.673 132.717 402.076C144.06 406.615 155.404 411.154 166.747 416.826C170.15 417.961 173.553 420.232 175.821 421.365C190.568 429.307 205.315 439.52 220.059 448.598C221.194 449.731 222.329 450.866 223.462 452.001C224.597 455.405 226.865 458.809 228 461.079C228 461.079 228 462.212 228 463.347C226.865 463.347 226.865 463.347 226.865 463.347C218.926 459.944 210.986 456.54 203.045 454.27C192.836 450.866 182.627 447.462 173.553 442.924H172.418C172.418 444.059 173.553 444.059 173.553 444.059C181.493 454.27 186.03 466.751 187.165 479.232C188.298 483.771 188.298 489.445 188.298 493.984C188.298 498.523 189.433 503.061 190.568 506.465C191.701 508.733 192.836 511.004 192.836 513.272C196.239 520.082 199.642 528.024 204.18 534.831C209.851 546.177 218.926 555.255 229.135 563.197C237.076 568.871 245.015 572.275 254.091 573.41H255.224C259.762 579.084 264.299 584.756 268.835 589.295C273.373 593.834 279.046 598.373 284.717 602.911C286.985 604.047 288.12 606.315 289.255 608.583C292.658 613.122 294.926 617.661 298.329 623.335C298.329 624.47 299.464 624.47 299.464 625.604C297.194 625.604 297.194 624.47 296.061 624.47C277.911 614.257 262.03 602.911 245.015 590.43C220.059 572.275 195.106 555.255 169.015 539.37C142.926 523.485 115.702 508.734 87.3438 495.119C83.9408 492.849 79.4035 491.713 76.0004 489.445C72.5975 488.31 69.1945 487.177 65.7916 486.041C56.717 484.906 46.508 483.771 36.299 482.638C36.299 482.638 35.1646 482.638 35.1646 483.771C36.299 484.906 37.4334 484.906 38.5676 486.041C44.2392 489.445 48.7765 492.849 54.4482 496.252C70.3289 507.6 85.0752 518.946 100.956 531.428C114.568 541.639 127.045 554.12 139.523 565.468C146.329 571.14 153.135 577.949 158.806 583.621C159.941 584.756 162.209 587.026 163.344 588.16C167.881 591.565 172.418 596.102 176.956 600.641C189.433 614.257 203.045 626.739 215.523 640.355C216.657 641.49 218.926 643.759 220.059 644.894C237.076 659.644 252.956 674.395 267.702 690.28C277.911 700.491 289.255 710.704 300.597 720.917C309.673 728.859 319.881 736.801 328.955 744.744C330.09 745.879 331.225 747.012 332.358 748.148C330.09 747.012 328.955 747.012 327.822 745.879C304 733.398 280.179 723.185 256.359 712.972C235.941 705.03 215.523 697.087 195.106 690.28C190.568 689.145 187.165 686.876 183.762 683.471C179.224 678.934 173.553 674.395 166.747 672.125C163.344 670.99 158.806 669.856 155.404 669.856C155.404 669.856 155.404 669.856 154.269 669.856C153.135 667.586 152 664.182 150.866 661.914C149.732 658.508 147.463 653.972 144.06 651.701C134.986 643.759 123.642 639.22 112.299 640.355C102.09 640.355 93.0154 641.49 82.8064 644.894C70.3289 648.298 57.8512 651.701 46.508 653.971C43.1049 655.105 39.7019 656.24 35.1646 657.375C23.8214 659.644 12.4781 661.914 0.000472307 661.914C-1.13386 661.914 -2.26819 661.914 -2.26819 663.047C0.000472307 664.182 2.26914 665.318 5.67211 667.586C18.1497 675.529 30.6273 684.606 43.1049 693.684C47.6424 697.087 52.1797 700.491 56.717 703.897C69.1945 712.972 82.8064 717.511 97.5527 719.781C103.224 720.917 110.03 720.917 115.702 720.917C125.911 719.781 134.986 716.378 142.926 709.569C144.06 708.435 145.195 707.3 146.329 707.3C147.463 707.3 147.463 707.3 147.463 707.3C153.135 710.704 159.941 711.839 166.747 710.704C169.015 710.704 171.284 710.704 173.553 709.569C178.09 709.569 181.493 709.569 184.896 710.704C187.165 711.839 188.298 711.839 190.568 712.972C224.597 724.32 257.494 737.935 290.388 752.686C306.27 759.494 321.016 767.436 335.761 775.38C349.373 782.188 361.851 790.13 375.463 796.937C376.598 796.937 377.731 798.072 377.731 799.208C376.598 799.208 376.598 799.208 375.463 799.208C361.851 796.937 348.24 795.804 334.628 795.804C331.225 795.804 328.955 795.804 325.552 796.937C318.746 798.072 313.075 799.208 306.27 800.343C292.658 802.611 280.179 807.15 266.567 811.689C265.433 811.689 263.165 812.824 263.165 813.957C265.433 813.957 268.835 813.957 271.105 812.824C286.985 811.689 302.867 812.824 318.746 815.092C323.284 815.092 327.822 816.228 332.358 818.496C342.567 821.9 352.776 825.305 362.986 828.709C365.254 829.842 367.522 829.842 369.792 830.977C373.195 832.113 376.598 833.248 380.001 833.248C391.343 835.516 402.687 840.055 412.895 845.729C414.03 846.862 416.298 847.997 417.433 847.997C420.836 849.133 424.239 851.401 427.642 852.536C436.716 855.94 445.792 860.479 454.866 865.018C465.074 869.556 475.283 875.23 485.494 878.634C487.762 879.769 490.03 880.902 491.165 882.038C500.239 888.845 509.314 895.654 518.388 902.461C520.658 904.732 524.061 905.865 527.464 907C527.464 907 528.597 907 529.732 907V886.576H532ZM72.5975 690.28C66.9258 688.01 60.1199 684.606 54.4482 681.203C48.7765 680.067 45.3736 677.799 43.1049 675.529L41.9707 674.395C41.9707 674.395 41.9707 673.26 43.1049 673.26C44.2392 673.26 46.508 673.26 47.6422 672.125C49.9109 672.125 51.0453 670.99 53.3139 670.99C54.4482 670.99 55.5826 669.856 56.717 669.856C58.9855 668.721 62.3885 668.721 64.6572 667.586C65.7916 667.586 66.9258 666.453 68.0602 666.453C68.0602 666.453 68.0601 666.453 69.1945 666.453C72.5975 668.721 74.8662 672.125 77.1348 675.529C79.4035 678.934 80.5379 681.203 82.8064 684.606C85.0752 688.01 87.3437 691.415 88.4781 693.684C88.4781 693.684 88.4781 693.684 88.4781 694.819C88.4781 694.819 88.4781 694.819 88.4781 695.954C86.2094 695.954 79.4035 693.684 72.5975 690.28ZM91.8811 658.508C95.284 657.375 98.6871 656.24 102.09 656.24C103.224 656.24 104.359 656.24 105.493 656.24C106.627 657.375 107.762 659.644 107.762 660.779V661.914C108.896 663.047 108.896 664.182 108.896 666.453C108.896 667.586 110.03 668.721 110.03 669.856C112.299 673.26 113.433 677.799 115.702 681.203C117.971 684.606 120.239 686.876 122.508 690.28C123.642 691.415 124.777 692.549 125.911 693.684C125.911 693.684 127.045 694.819 128.18 694.819C127.045 697.087 125.911 697.087 124.777 697.087C123.642 697.087 123.642 697.087 122.508 697.087H121.374C120.239 697.087 120.239 697.087 119.105 695.954C117.971 695.954 116.836 694.819 115.702 694.819C113.433 693.684 111.165 692.549 107.762 691.415C106.627 691.415 105.493 690.28 104.359 690.28C99.8213 688.01 96.4184 685.741 93.0154 683.471C90.7467 681.202 88.4781 680.067 86.2094 677.799C83.9408 675.529 80.5379 673.26 78.2691 670.99C77.1348 669.856 76.0004 669.856 74.8662 668.721C74.8662 668.721 73.7318 667.586 72.5975 667.586H73.7318C74.8662 667.586 74.8662 667.586 74.8662 666.453C78.2691 665.318 80.5379 664.182 83.9408 663.047C85.0752 663.047 86.2094 661.914 87.3438 661.914C89.6125 659.644 90.7467 658.508 91.8811 658.508ZM120.239 656.24C122.508 657.375 124.777 658.508 127.045 660.779C129.314 661.914 130.448 664.182 132.717 666.453C133.851 667.586 133.851 668.721 133.851 669.856C134.986 674.395 136.12 677.799 137.254 682.338C137.254 682.338 137.254 683.473 137.254 684.606C136.12 684.606 134.986 683.471 133.851 683.471C130.448 682.338 127.045 680.067 124.777 677.799C123.642 676.664 122.508 675.529 121.374 674.395C120.239 673.26 120.239 673.26 119.105 672.125C115.702 667.586 112.299 663.047 108.896 659.644C108.896 658.509 107.762 658.51 107.762 657.375L108.896 656.24C113.433 653.972 116.836 655.105 120.239 656.24ZM369.792 749.283C364.119 744.744 359.583 740.205 353.911 735.666C352.776 734.531 351.643 733.398 349.373 732.263C348.24 731.127 347.105 729.992 345.97 728.859C342.567 726.589 340.299 723.185 336.896 720.917C334.628 719.781 332.358 717.511 331.225 716.378C326.687 712.972 322.149 708.435 317.613 705.03C316.478 703.896 315.343 703.897 315.343 702.761C314.209 701.626 313.075 700.491 311.941 699.358C310.806 698.223 308.538 697.087 307.403 694.819C305.135 693.684 304 691.415 301.732 690.28C300.597 689.145 298.329 688.01 297.194 685.741C293.791 682.338 290.388 680.067 286.985 676.664C285.852 675.529 283.582 673.26 282.449 672.125L281.314 670.99C280.179 669.856 277.911 667.586 276.776 666.453C274.508 664.182 271.105 660.779 268.835 658.508C267.702 657.375 266.567 656.24 265.433 655.105C264.299 653.972 263.165 652.836 262.03 652.836C260.897 651.701 259.762 650.566 258.627 649.433C257.494 648.298 256.359 648.298 256.359 647.162C254.091 644.894 252.956 643.759 250.688 641.49C250.688 641.49 250.688 641.49 249.553 640.355L248.418 639.22C245.015 636.951 242.747 633.546 239.344 631.277C237.076 629.009 234.806 627.874 233.673 625.604C230.268 622.2 226.865 619.931 223.462 616.528C221.194 614.257 217.791 610.854 215.523 608.583C209.851 601.776 203.045 596.102 196.239 589.295C193.971 587.027 192.836 585.891 190.568 584.756C182.627 577.949 173.553 570.006 165.612 563.197C163.344 562.064 162.209 559.794 159.941 557.525C162.209 557.525 163.344 558.659 164.478 559.794C173.553 565.468 182.627 571.14 190.568 576.814C191.701 577.949 192.836 579.084 195.106 580.217C197.374 582.488 200.777 583.621 203.045 585.891C208.718 589.295 214.389 593.834 220.059 597.237C225.732 600.641 231.403 605.18 235.941 608.583C240.479 611.989 243.882 614.257 248.418 617.661C248.418 617.661 248.418 617.661 249.553 617.661C250.688 618.796 251.821 618.796 251.821 619.931C252.956 619.931 252.956 621.065 254.091 621.065C260.897 625.604 267.702 630.142 274.508 634.681C274.508 634.681 275.643 634.681 275.643 635.816C275.643 635.816 276.776 635.816 276.776 636.951C277.911 638.085 280.179 639.22 281.314 640.355C285.852 642.624 290.388 646.027 294.926 648.298C296.061 649.433 298.329 649.433 299.464 650.566C302.867 652.836 306.27 655.105 309.673 656.24C310.806 657.375 313.075 657.375 314.209 658.508C317.613 660.779 322.149 663.047 325.552 665.318C327.822 666.453 328.955 667.586 331.225 668.721C331.225 668.721 331.225 668.721 332.358 668.721C333.493 668.721 334.628 669.856 334.628 669.856C335.761 669.856 335.761 670.99 336.896 670.99C339.164 672.125 340.299 673.26 341.434 675.529C347.105 683.473 352.776 690.28 359.583 698.223C360.717 699.358 360.717 699.358 361.851 700.491C365.254 705.03 368.657 709.569 373.195 712.972L374.328 714.107C372.06 711.839 368.657 710.704 365.254 708.435C358.449 703.896 350.508 699.358 345.97 697.087C344.837 695.954 343.702 695.954 342.567 694.819C341.434 694.819 340.299 693.684 339.164 693.684C336.896 692.549 334.628 691.415 332.358 690.28C328.955 689.145 326.687 686.877 323.284 685.741C314.209 681.203 306.27 676.664 306.27 676.664C306.27 676.664 307.403 677.799 308.538 677.799C310.806 680.067 314.209 683.473 317.613 686.876C321.016 690.28 325.552 694.819 330.09 698.223C331.225 699.358 332.358 700.491 333.493 701.626C334.628 702.761 335.761 703.896 336.896 705.03C344.837 711.839 351.643 717.511 355.046 720.917C357.314 722.05 360.717 724.32 364.119 727.724L365.254 728.859C373.195 734.531 382.269 741.34 389.075 747.012C391.343 748.147 393.613 750.416 394.746 751.551C395.881 752.686 395.881 753.821 397.016 754.955C400.419 760.629 403.822 766.303 407.225 771.975C408.359 774.245 409.493 775.38 410.627 777.649L411.762 778.784V779.917C411.762 779.917 411.762 779.917 411.762 781.052C411.762 781.052 410.627 781.052 410.627 779.917C409.493 778.784 407.225 777.649 406.09 776.514C404.957 775.38 403.822 774.245 402.687 773.11C399.284 770.842 397.016 768.571 393.613 766.303C389.075 762.899 383.404 758.36 378.866 753.821C373.195 752.686 372.06 751.551 369.792 749.283ZM198.509 415.693C199.642 414.558 199.642 415.693 200.777 415.693C205.315 416.826 209.851 419.096 213.254 420.232C214.389 421.365 216.657 421.365 217.791 421.365C225.732 424.768 233.671 427.039 241.612 430.442C243.882 431.578 245.015 431.578 247.285 432.713C251.821 434.981 256.359 437.25 260.897 438.385C262.03 438.385 263.165 439.52 264.299 439.52C266.567 440.655 267.702 441.789 267.702 442.924C271.105 449.731 274.508 457.675 277.911 464.483C277.911 465.618 279.046 466.751 279.046 467.886C280.179 469.021 280.179 470.156 280.179 473.56C279.046 472.425 276.776 472.425 275.643 471.29C274.508 470.156 272.238 469.021 271.105 467.886C263.165 462.212 256.359 456.54 248.418 450.866C246.15 449.731 245.015 448.598 242.747 446.327C241.612 445.194 239.344 444.059 238.209 441.789C237.076 440.655 235.941 440.655 235.941 439.52C224.597 430.442 212.121 422.5 199.642 414.558C200.777 416.826 199.642 416.826 198.509 415.693ZM192.836 262.512C191.701 261.379 190.568 259.109 189.433 257.974C189.433 257.974 189.433 256.84 188.298 256.84C188.298 256.84 188.298 256.84 187.165 255.705C186.03 253.435 184.896 252.301 184.896 248.898C184.896 245.492 183.762 242.089 183.762 237.55C183.762 236.417 183.762 234.146 182.627 233.011C182.627 233.011 182.627 233.011 182.627 231.878C182.627 230.743 182.627 229.607 182.627 229.607C182.627 228.472 182.627 228.472 182.627 227.339C182.627 225.069 181.493 222.8 181.493 220.53C181.493 218.261 180.359 215.991 180.359 213.723V210.319C180.359 209.184 180.359 209.184 180.359 208.049C181.493 209.184 181.493 209.184 182.627 209.184C183.762 210.319 184.896 211.454 186.03 212.587L187.165 213.723C187.165 214.858 188.298 214.858 188.298 215.991C188.298 215.991 188.298 215.991 188.298 217.126C189.433 218.261 190.568 219.396 191.701 220.53C193.971 223.935 197.374 227.339 199.642 230.743C200.777 231.878 201.912 233.011 203.045 235.281C204.18 237.55 205.315 238.685 206.448 240.953C207.583 243.224 209.851 245.492 210.986 247.763L212.121 248.898C213.254 251.166 215.523 253.435 216.657 255.705C217.791 257.974 218.926 260.244 221.194 261.379C223.462 263.647 224.597 267.051 226.865 269.321C226.865 270.455 228 270.455 228 271.59C231.403 276.129 235.941 281.803 238.209 287.475C239.344 288.61 240.479 290.88 241.612 292.014C242.747 294.284 245.015 296.552 246.15 298.823C246.15 298.823 246.15 298.823 246.15 299.956C247.285 301.091 247.285 303.362 248.418 304.495C248.418 305.63 248.418 305.63 248.418 306.765V307.898C249.553 313.572 250.688 319.246 251.821 323.785C254.091 337.4 257.494 351.016 260.897 363.497C262.03 368.036 264.299 373.71 265.433 378.249C265.433 379.382 266.567 380.517 266.567 381.653C269.97 391.864 273.373 402.076 277.911 412.287C277.911 413.422 279.046 414.558 279.046 415.693C280.179 416.826 280.179 419.096 281.314 420.232C282.449 423.635 283.582 425.904 284.717 429.307C288.12 436.116 290.388 444.059 293.791 450.866C293.791 450.866 293.791 452.001 294.926 452.001C294.926 452.001 294.926 453.136 296.061 453.136C299.464 459.944 302.867 466.751 306.27 473.56C308.538 478.099 310.806 481.503 311.941 486.041C311.941 487.177 313.075 488.31 311.941 489.445C311.941 488.31 310.806 488.31 310.806 487.177C310.806 486.041 309.673 484.906 309.673 483.771C309.673 482.638 308.538 482.638 308.538 481.503C307.403 480.367 307.403 479.232 306.27 476.964C304 471.29 300.597 466.751 298.329 461.079C297.194 458.809 297.194 457.675 296.061 455.405C294.926 453.136 293.791 450.866 292.658 448.598C289.255 441.789 286.985 436.116 283.582 429.307C281.314 425.904 280.179 421.365 277.911 417.961V416.826L276.776 413.422C276.776 413.422 276.776 412.287 275.643 412.287C274.508 410.019 273.373 407.75 272.238 405.48C268.835 397.538 265.433 388.46 260.897 380.517C256.359 371.44 250.688 362.362 246.15 353.287C243.882 348.748 241.612 345.342 239.344 340.805C235.941 335.131 232.538 328.324 229.135 322.65C226.865 318.111 223.462 313.572 221.194 310.169C221.194 310.169 221.194 309.034 220.059 309.034C215.523 301.091 210.986 294.284 206.448 287.475C205.315 286.341 204.18 284.071 204.18 282.936C203.045 281.803 201.912 279.532 200.777 278.399V277.264C199.642 274.994 197.374 272.725 196.239 269.321C195.106 268.186 195.106 267.051 193.971 265.916C195.106 267.051 193.971 264.783 192.836 262.512ZM134.986 270.455C133.851 271.59 133.851 271.59 132.717 272.725L131.583 273.86C130.448 276.129 128.18 277.264 127.045 278.399C125.911 279.532 125.911 279.532 124.777 280.668C123.642 281.803 122.508 282.936 121.374 284.071C120.239 285.206 119.105 285.206 119.105 286.341C119.105 286.341 119.105 286.341 117.971 286.341C114.568 288.61 112.299 290.88 108.896 293.149C105.493 295.417 103.224 297.688 99.8213 298.823C96.4184 301.091 93.0154 303.362 89.6125 304.495C89.6125 304.495 88.4781 304.495 88.4781 305.63C87.3437 304.495 88.4781 304.495 88.4781 303.362C89.6125 303.362 90.7467 301.091 93.0154 298.823C95.284 295.417 96.4184 292.014 98.6871 288.61C98.6871 287.475 99.8213 287.475 99.8213 286.341C102.09 282.936 103.224 279.532 105.493 276.129C106.627 273.86 107.762 271.59 108.896 268.186C108.896 267.051 110.03 265.916 110.03 264.783C111.165 262.512 111.165 261.379 112.299 259.109C113.433 256.84 113.433 254.57 114.568 253.435C115.702 251.166 115.702 250.031 116.836 247.763C119.105 240.953 122.508 234.146 124.777 227.339C124.777 226.204 125.911 225.069 125.911 225.069C125.911 225.069 125.911 225.069 127.045 225.069H128.18C133.851 227.339 138.388 229.607 142.926 234.146C144.06 235.281 145.195 236.417 146.329 237.55C147.463 238.685 148.597 239.82 149.732 240.953C149.732 244.359 148.597 247.763 147.463 250.031C142.926 256.84 139.523 264.783 134.986 270.455ZM150.866 214.858C149.732 213.722 148.597 213.723 147.463 212.587C146.329 211.454 145.195 211.454 144.06 210.319C144.06 210.319 142.926 210.319 142.926 209.184C142.926 209.184 142.926 208.049 144.06 208.049C145.195 206.915 146.329 206.915 147.463 205.78C148.597 204.645 150.866 203.51 152 203.51C153.135 202.376 154.269 201.241 155.404 201.241C156.538 200.106 157.672 198.973 159.941 197.838C159.941 198.973 161.075 198.973 161.075 200.106C161.075 203.51 162.209 206.915 162.209 211.454C162.209 212.587 162.209 213.723 162.209 215.991C162.209 217.126 162.209 218.261 162.209 219.396V223.935C162.209 225.069 162.209 225.069 162.209 226.204C161.075 227.339 159.941 226.204 159.941 225.069C157.672 222.8 155.404 221.665 154.269 219.396C153.135 215.991 152 214.858 150.866 214.858ZM293.791 386.191C293.791 385.056 292.658 383.921 292.658 382.788C291.523 380.517 291.523 379.382 290.388 377.114C289.255 373.71 288.12 369.171 286.985 365.768C285.852 363.497 285.852 360.094 284.717 357.823C283.582 354.42 282.449 351.016 282.449 347.613C281.314 341.939 280.179 336.266 277.911 331.728C277.911 330.593 277.911 329.457 276.776 328.324C274.508 315.843 272.238 304.495 269.97 292.014C269.97 289.745 269.97 288.61 268.835 286.341C267.702 281.803 267.702 277.264 266.567 271.59C266.567 270.455 266.567 270.455 266.567 269.321C265.433 264.783 265.433 260.244 264.299 255.705C264.299 252.301 263.165 248.898 263.165 244.359C262.03 235.281 260.897 226.204 259.762 217.126C259.762 215.991 259.762 215.991 259.762 214.858C259.762 213.722 259.762 212.587 259.762 211.454C259.762 210.319 259.762 210.319 259.762 209.184C259.762 208.049 259.762 208.049 259.762 206.915C259.762 204.645 259.762 203.51 259.762 201.241C259.762 194.434 258.627 188.76 258.627 181.953C258.627 179.682 258.627 177.414 258.627 175.144C258.627 174.008 258.627 174.008 258.627 172.875C258.627 171.74 258.627 170.605 258.627 169.472C258.627 167.201 258.627 164.933 258.627 162.662C258.627 160.394 258.627 158.124 258.627 154.72C258.627 153.585 258.627 152.451 258.627 151.316C258.627 146.777 258.627 142.239 258.627 136.565C258.627 135.431 258.627 134.296 258.627 133.161C258.627 132.028 258.627 130.893 258.627 128.622V129.757C258.627 130.893 258.627 132.028 258.627 133.161C258.627 134.296 258.627 134.296 258.627 135.431C258.627 141.104 259.762 145.642 259.762 151.316C259.762 153.585 259.762 155.855 259.762 158.124C259.762 160.394 259.762 162.662 260.897 164.933C262.03 175.144 263.165 184.221 264.299 194.434C264.299 196.702 264.299 197.838 265.433 200.106C265.433 203.51 266.567 205.78 266.567 209.184C267.702 218.261 268.835 228.472 271.105 237.55C272.238 242.089 272.238 246.627 273.373 252.301C273.373 253.435 273.373 254.57 273.373 255.705C274.508 259.109 274.508 263.647 275.643 267.051C276.776 272.725 277.911 277.264 279.046 282.936C282.449 295.417 285.852 307.898 289.255 320.38C291.523 327.189 293.791 333.996 296.061 340.805C296.061 341.939 297.194 343.074 297.194 344.209C297.194 345.342 298.329 346.477 298.329 347.613C299.464 351.016 300.597 354.42 301.732 357.823C301.732 358.959 301.732 358.959 302.867 360.094C304 363.497 305.135 365.768 306.27 369.171C306.27 370.305 307.403 371.44 307.403 372.575C307.403 372.575 307.403 372.575 307.403 373.71C308.538 377.114 310.806 379.382 311.941 382.788C313.075 383.921 313.075 386.191 314.209 387.325C315.343 389.595 316.478 392.999 315.343 396.402C314.209 408.884 313.075 421.365 311.941 433.846C311.941 434.981 311.941 436.116 310.806 438.385C309.673 437.25 309.673 436.116 309.673 436.116C308.538 434.981 308.538 432.713 307.403 431.578C306.27 428.174 305.135 425.904 304 422.5C302.867 419.096 300.597 414.558 299.464 411.154C298.329 408.884 297.194 405.48 296.061 403.212C297.194 397.538 294.926 391.864 293.791 386.191ZM231.403 492.849C232.538 493.984 234.806 495.119 235.941 496.252C240.479 499.658 243.882 503.061 247.285 506.465C248.418 507.6 249.553 508.734 250.688 509.869C252.956 512.139 254.091 513.272 256.359 515.543C257.494 516.676 258.627 518.946 259.762 520.082C259.762 520.082 259.762 521.215 260.897 521.215L262.03 522.35C262.03 523.485 263.165 524.62 263.165 524.62C264.299 528.024 265.433 531.428 265.433 535.966C264.299 535.966 264.299 535.966 263.165 534.831C262.03 532.563 259.762 530.292 258.627 528.024C257.494 526.889 257.494 525.754 256.359 524.62C254.091 522.35 252.956 521.215 250.688 518.946C249.553 517.811 248.418 517.811 247.285 516.676C247.285 517.811 248.418 517.811 249.553 518.946C250.688 520.082 250.688 521.215 251.821 521.215C252.956 522.35 254.091 524.62 254.091 525.754C255.224 528.024 256.359 529.157 256.359 531.428C256.359 532.563 257.494 534.831 257.494 537.102V538.235C257.494 540.505 258.627 541.638 258.627 543.909C258.627 546.177 259.762 548.448 259.762 549.583C259.762 549.583 259.762 549.583 258.627 549.583C257.494 549.583 256.359 549.583 255.224 549.583C254.091 549.583 252.956 549.583 251.821 548.448C249.553 547.312 247.285 546.177 246.15 543.909C243.882 541.638 242.747 538.235 240.479 535.966C239.344 533.696 237.076 530.292 235.941 526.889C233.671 522.35 232.538 516.676 231.403 512.139C229.135 505.33 228 498.523 226.865 490.58C226.865 489.445 226.865 489.445 226.865 488.31C226.865 488.31 226.865 487.177 226.865 486.041C228 486.041 228 487.177 229.135 487.177C229.135 490.58 230.268 491.713 231.403 492.849ZM198.509 469.021C199.642 470.157 200.777 471.29 203.045 472.425C205.315 474.693 207.583 475.829 209.851 478.099C212.121 479.232 213.254 480.367 215.523 482.638C216.657 483.771 217.791 483.771 218.926 484.906C221.194 486.041 222.329 488.31 222.329 490.58C222.329 495.119 222.329 499.658 223.462 504.195C223.462 505.33 223.462 506.465 223.462 507.6C223.462 509.869 223.462 512.139 223.462 514.408C223.462 515.543 223.462 516.676 223.462 517.811V523.485C223.462 524.62 223.462 524.62 223.462 525.754V526.889C223.462 526.889 223.462 526.889 223.462 528.024C222.329 526.889 222.329 526.889 222.329 526.889C221.194 525.754 221.194 524.62 220.059 523.485C217.791 518.946 214.389 513.272 212.121 507.6C210.986 506.465 210.986 505.33 209.851 503.061C209.851 503.061 209.851 501.926 208.718 501.926C207.583 498.523 205.315 493.984 204.18 490.58C201.912 484.906 199.642 479.232 196.239 473.56V472.425C197.374 467.886 198.509 469.021 198.509 469.021ZM389.075 441.789C390.21 442.924 390.21 444.059 391.343 445.194C394.746 454.27 398.151 464.483 401.554 474.693C401.554 475.829 402.687 476.964 402.687 478.099V479.232C402.687 479.232 402.687 479.232 402.687 478.099H401.554C400.419 476.964 400.419 476.964 400.419 475.829C398.149 471.29 395.881 466.751 392.478 462.212C391.343 459.944 390.21 457.675 390.21 455.405C390.21 452.001 390.21 448.598 389.075 446.327C389.075 444.059 389.075 442.924 389.075 441.789ZM345.97 73.0246C345.97 70.7552 347.105 67.3512 348.24 65.082C350.508 62.8126 351.643 59.4086 352.776 56.0046C355.046 51.466 357.314 45.7928 360.717 41.2541C361.851 41.2541 361.851 40.1195 362.986 40.1195C364.119 40.1195 362.986 40.1195 362.986 41.2541C362.986 43.5234 362.986 45.7928 362.986 48.062C362.986 56.0046 362.986 63.9472 365.254 73.0246C366.389 77.5633 366.389 82.1019 367.522 86.6405C367.522 87.7751 367.522 88.9099 367.522 90.0445C366.389 90.0445 366.389 88.9099 365.254 87.7751C364.119 85.5059 362.986 84.3713 361.851 82.1019C361.851 80.9673 360.717 80.9673 359.583 80.9673C359.583 82.1019 360.717 82.1019 360.717 83.2365C365.254 96.8525 367.522 110.468 364.119 125.219C364.119 125.219 364.119 126.354 362.986 127.489C362.986 126.354 361.851 125.219 361.851 125.219C360.717 120.68 358.449 115.007 356.179 110.468C353.911 104.795 350.508 99.1217 348.24 92.3139C347.105 85.5059 345.97 78.6979 345.97 73.0246ZM341.434 151.316C338.031 147.913 334.628 144.509 333.493 139.97C331.225 135.431 330.09 130.893 328.955 125.219C327.822 119.546 327.822 115.007 328.955 109.334C330.09 101.391 332.358 94.5831 336.896 86.6405C336.896 85.5059 338.031 85.5059 338.031 84.3713C338.031 84.3713 338.031 84.3713 339.164 84.3713C339.164 85.5059 339.164 85.5059 339.164 86.6405C339.164 93.4485 341.434 99.1217 344.837 104.795C347.105 109.334 348.24 112.738 350.508 117.276C355.046 127.489 356.181 137.7 353.911 147.913V149.046C353.911 150.181 352.776 150.181 352.776 150.181C347.105 153.585 344.837 153.585 341.434 151.316ZM174.687 102.526H173.553C173.553 101.391 173.553 101.391 173.553 100.257C176.956 92.3139 176.956 83.2365 175.821 75.2939C174.687 69.6206 173.553 65.082 172.418 59.4086C171.284 60.5434 172.418 62.8126 172.418 63.9472C172.418 69.6206 172.418 75.2939 171.284 79.8325C170.15 87.7751 166.747 94.5831 163.344 101.391C163.344 101.391 163.344 101.391 162.209 102.526C159.941 99.1217 158.806 96.8525 158.806 93.4485C157.672 86.6405 156.538 78.6979 157.672 71.8898C157.672 67.3512 158.806 63.9472 158.806 59.4086C159.941 49.1968 162.209 40.1193 165.612 31.0421C167.881 25.3689 169.015 19.6955 171.284 14.0223C172.418 10.6182 173.553 8.34903 174.687 6.07963L175.821 4.94501C175.821 6.07962 176.956 7.21423 176.956 7.21423C180.359 21.9649 183.762 35.5807 186.03 50.3314C187.165 56.0046 188.298 62.8126 188.298 68.486C188.298 70.7553 188.298 74.1592 188.298 76.4286C188.298 88.9099 182.627 96.8525 174.687 102.526ZM145.195 56.0046C144.06 61.678 144.06 67.3512 144.06 71.8898C144.06 73.0246 144.06 75.2939 144.06 76.4286C144.06 75.2939 142.926 75.2939 142.926 75.2939C142.926 74.1593 141.791 71.8899 141.791 70.7552C140.657 63.9472 141.791 57.1394 141.791 50.3314C144.06 33.3115 148.597 16.2917 156.538 0.406399C161.075 -7.53623 164.478 -16.6136 167.881 -24.5563C169.015 -26.8255 170.15 -27.9601 170.15 -29.0949H171.284C171.284 -27.9601 171.284 -27.9603 171.284 -26.8255C171.284 -22.2869 171.284 -17.7483 171.284 -12.075C171.284 -10.9402 171.284 -8.67102 170.15 -7.53622C169.015 -2.99761 166.747 0.406404 164.478 3.81023C155.404 19.6955 148.597 36.7155 145.195 56.0046ZM199.642 318.111C199.642 316.976 198.509 314.708 198.509 312.437C199.642 313.572 200.777 314.708 200.777 315.843C206.448 326.054 212.121 335.131 217.791 345.342C225.732 360.094 234.806 374.844 242.747 389.595C246.15 396.402 249.553 404.345 252.956 411.154C252.956 412.287 254.091 413.422 254.091 415.693C252.956 415.693 251.821 415.693 251.821 414.558C243.882 411.154 235.941 407.75 228 403.212C225.732 402.076 224.597 400.941 223.462 398.673C218.926 385.056 214.389 371.44 209.851 357.823C207.583 346.477 204.18 332.861 199.642 318.111ZM297.194 567.736C296.061 564.333 294.926 560.929 292.658 556.39C291.523 552.986 289.255 549.583 285.852 547.312C284.717 546.177 283.582 545.044 284.717 542.774C288.12 530.292 284.717 518.946 277.911 508.734C274.508 503.061 269.97 498.523 264.299 493.984C262.03 491.713 260.897 489.445 259.762 487.177C258.627 483.771 257.494 480.367 256.359 478.099C256.359 476.964 256.359 476.964 256.359 475.829C257.494 474.695 258.627 475.829 258.627 475.829C263.165 479.232 267.702 482.638 271.105 484.906C275.643 488.31 280.179 491.713 285.852 495.119C288.12 497.387 290.388 498.523 293.791 499.658C296.061 500.791 297.194 501.926 298.329 504.195C302.867 514.408 308.538 525.754 313.075 535.966C316.478 542.774 319.881 549.583 323.284 556.39C325.552 560.929 326.687 565.468 327.822 570.006C333.493 596.102 340.299 622.2 348.24 648.298C348.24 649.433 349.373 650.566 349.373 651.701C349.373 651.701 349.373 651.701 349.373 652.836C348.24 652.836 348.24 651.701 347.105 651.701C345.97 650.566 345.97 649.433 344.837 649.433C332.358 632.413 321.016 615.393 309.673 598.373C307.403 594.969 306.27 591.565 305.135 588.16C301.732 582.488 299.464 575.679 297.194 567.736Z" fill="#0F2D52"/>
</svg>
